<?xml version="1.0" encoding="UTF-8" standalone="no"?>
<!DOCTYPE svg PUBLIC "-//W3C//DTD SVG 1.1//EN"
 "http://www.w3.org/Graphics/SVG/1.1/DTD/svg11.dtd">
<!-- Generated by graphviz version 9.0.0 (0)
 -->
<!-- Pages: 1 -->
<svg width="1895pt" height="980pt"
 viewBox="0.00 0.00 1895.43 980.00" xmlns="http://www.w3.org/2000/svg" xmlns:xlink="http://www.w3.org/1999/xlink">
<g id="graph0" class="graph" transform="scale(1 1) rotate(0) translate(4 976)">
<polygon fill="white" stroke="none" points="-4,4 -4,-976 1891.43,-976 1891.43,4 -4,4"/>
<!-- bc -->
<g id="node1" class="node">
<title>bc</title>
<ellipse fill="none" stroke="black" cx="159" cy="-954" rx="27" ry="18"/>
<text text-anchor="middle" x="159" y="-948.95" font-family="Times,serif" font-size="14.00">bc</text>
</g>
<!-- ph -->
<g id="node2" class="node">
<title>ph</title>
<ellipse fill="none" stroke="black" cx="159" cy="-882" rx="27" ry="18"/>
<text text-anchor="middle" x="159" y="-876.95" font-family="Times,serif" font-size="14.00">ph</text>
</g>
<!-- bc&#45;&gt;ph -->
<g id="edge1" class="edge">
<title>bc&#45;&gt;ph</title>
<path fill="none" stroke="black" d="M159,-935.7C159,-928.41 159,-919.73 159,-911.54"/>
<polygon fill="black" stroke="black" points="162.5,-911.62 159,-901.62 155.5,-911.62 162.5,-911.62"/>
</g>
<!-- vk -->
<g id="node13" class="node">
<title>vk</title>
<ellipse fill="none" stroke="black" cx="224" cy="-666" rx="27" ry="18"/>
<text text-anchor="middle" x="224" y="-660.95" font-family="Times,serif" font-size="14.00">vk</text>
</g>
<!-- ph&#45;&gt;vk -->
<g id="edge88" class="edge">
<title>ph&#45;&gt;vk</title>
<path fill="none" stroke="black" d="M154.31,-863.8C150.09,-845.78 145.21,-816.7 150,-792 156.56,-758.13 161.16,-749.53 179,-720 185.46,-709.31 194.05,-698.6 202,-689.63"/>
<polygon fill="black" stroke="black" points="204.42,-692.17 208.6,-682.43 199.26,-687.44 204.42,-692.17"/>
</g>
<!-- md -->
<g id="node56" class="node">
<title>md</title>
<ellipse fill="none" stroke="black" cx="186" cy="-810" rx="27" ry="18"/>
<text text-anchor="middle" x="186" y="-804.95" font-family="Times,serif" font-size="14.00">md</text>
</g>
<!-- ph&#45;&gt;md -->
<g id="edge87" class="edge">
<title>ph&#45;&gt;md</title>
<path fill="none" stroke="black" d="M165.54,-864.05C168.52,-856.32 172.13,-846.96 175.48,-838.27"/>
<polygon fill="black" stroke="black" points="178.65,-839.79 178.98,-829.2 172.12,-837.27 178.65,-839.79"/>
</g>
<!-- hr -->
<g id="node3" class="node">
<title>hr</title>
<ellipse fill="none" stroke="black" cx="552" cy="-306" rx="27" ry="18"/>
<text text-anchor="middle" x="552" y="-300.95" font-family="Times,serif" font-size="14.00">hr</text>
</g>
<!-- zq -->
<g id="node4" class="node">
<title>zq</title>
<ellipse fill="none" stroke="black" cx="552" cy="-234" rx="27" ry="18"/>
<text text-anchor="middle" x="552" y="-228.95" font-family="Times,serif" font-size="14.00">zq</text>
</g>
<!-- hr&#45;&gt;zq -->
<g id="edge2" class="edge">
<title>hr&#45;&gt;zq</title>
<path fill="none" stroke="black" d="M552,-287.7C552,-280.41 552,-271.73 552,-263.54"/>
<polygon fill="black" stroke="black" points="555.5,-263.62 552,-253.62 548.5,-263.62 555.5,-263.62"/>
</g>
<!-- kb -->
<g id="node23" class="node">
<title>kb</title>
<ellipse fill="none" stroke="black" cx="634" cy="-738" rx="27" ry="18"/>
<text text-anchor="middle" x="634" y="-732.95" font-family="Times,serif" font-size="14.00">kb</text>
</g>
<!-- zq&#45;&gt;kb -->
<g id="edge21" class="edge">
<title>zq&#45;&gt;kb</title>
<path fill="none" stroke="black" d="M533.88,-247.57C504.09,-269.9 448,-319.55 448,-377 448,-595 448,-595 448,-595 448,-635.45 439.82,-654.05 467,-684 499.88,-720.24 557.38,-731.86 595.57,-735.49"/>
<polygon fill="black" stroke="black" points="595,-738.96 605.25,-736.26 595.56,-731.98 595,-738.96"/>
</g>
<!-- fl -->
<g id="node29" class="node">
<title>fl</title>
<ellipse fill="none" stroke="black" cx="664" cy="-162" rx="27" ry="18"/>
<text text-anchor="middle" x="664" y="-156.95" font-family="Times,serif" font-size="14.00">fl</text>
</g>
<!-- zq&#45;&gt;fl -->
<g id="edge22" class="edge">
<title>zq&#45;&gt;fl</title>
<path fill="none" stroke="black" d="M571.25,-220.97C588.8,-210 614.97,-193.64 635.04,-181.1"/>
<polygon fill="black" stroke="black" points="636.71,-184.18 643.34,-175.91 633,-178.24 636.71,-184.18"/>
</g>
<!-- sn -->
<g id="node5" class="node">
<title>sn</title>
<ellipse fill="none" stroke="black" cx="169" cy="-522" rx="27" ry="18"/>
<text text-anchor="middle" x="169" y="-516.95" font-family="Times,serif" font-size="14.00">sn</text>
</g>
<!-- sj -->
<g id="node6" class="node">
<title>sj</title>
<ellipse fill="none" stroke="black" cx="131" cy="-450" rx="27" ry="18"/>
<text text-anchor="middle" x="131" y="-444.95" font-family="Times,serif" font-size="14.00">sj</text>
</g>
<!-- sn&#45;&gt;sj -->
<g id="edge3" class="edge">
<title>sn&#45;&gt;sj</title>
<path fill="none" stroke="black" d="M160.19,-504.76C155.73,-496.55 150.2,-486.37 145.16,-477.09"/>
<polygon fill="black" stroke="black" points="148.33,-475.6 140.49,-468.48 142.18,-478.94 148.33,-475.6"/>
</g>
<!-- kq -->
<g id="node55" class="node">
<title>kq</title>
<ellipse fill="none" stroke="black" cx="112" cy="-378" rx="27" ry="18"/>
<text text-anchor="middle" x="112" y="-372.95" font-family="Times,serif" font-size="14.00">kq</text>
</g>
<!-- sj&#45;&gt;kq -->
<g id="edge76" class="edge">
<title>sj&#45;&gt;kq</title>
<path fill="none" stroke="black" d="M126.4,-432.05C124.35,-424.49 121.87,-415.37 119.56,-406.85"/>
<polygon fill="black" stroke="black" points="122.95,-405.98 116.95,-397.25 116.2,-407.82 122.95,-405.98"/>
</g>
<!-- df -->
<g id="node7" class="node">
<title>df</title>
<ellipse fill="none" stroke="black" cx="1511" cy="-162" rx="27" ry="18"/>
<text text-anchor="middle" x="1511" y="-156.95" font-family="Times,serif" font-size="14.00">df</text>
</g>
<!-- dn -->
<g id="node8" class="node">
<title>dn</title>
<ellipse fill="none" stroke="black" cx="1608" cy="-810" rx="27" ry="18"/>
<text text-anchor="middle" x="1608" y="-804.95" font-family="Times,serif" font-size="14.00">dn</text>
</g>
<!-- df&#45;&gt;dn -->
<g id="edge4" class="edge">
<title>df&#45;&gt;dn</title>
<path fill="none" stroke="black" d="M1503.89,-179.7C1493.4,-205.89 1475,-258.46 1475,-305 1475,-667 1475,-667 1475,-667 1475,-726.22 1537.39,-770.93 1576.7,-793.23"/>
<polygon fill="black" stroke="black" points="1574.85,-796.2 1585.3,-797.94 1578.21,-790.06 1574.85,-796.2"/>
</g>
<!-- hf -->
<g id="node9" class="node">
<title>hf</title>
<ellipse fill="none" stroke="black" cx="1511" cy="-90" rx="27" ry="18"/>
<text text-anchor="middle" x="1511" y="-84.95" font-family="Times,serif" font-size="14.00">hf</text>
</g>
<!-- df&#45;&gt;hf -->
<g id="edge5" class="edge">
<title>df&#45;&gt;hf</title>
<path fill="none" stroke="black" d="M1511,-143.7C1511,-136.41 1511,-127.73 1511,-119.54"/>
<polygon fill="black" stroke="black" points="1514.5,-119.62 1511,-109.62 1507.5,-119.62 1514.5,-119.62"/>
</g>
<!-- jx -->
<g id="node34" class="node">
<title>jx</title>
<ellipse fill="none" stroke="black" cx="1701" cy="-450" rx="27" ry="18"/>
<text text-anchor="middle" x="1701" y="-444.95" font-family="Times,serif" font-size="14.00">jx</text>
</g>
<!-- dn&#45;&gt;jx -->
<g id="edge33" class="edge">
<title>dn&#45;&gt;jx</title>
<path fill="none" stroke="black" d="M1629.01,-798.33C1665.57,-778.1 1737,-730.45 1737,-667 1737,-667 1737,-667 1737,-593 1737,-552.09 1722.79,-506.54 1712.22,-478.32"/>
<polygon fill="black" stroke="black" points="1715.53,-477.17 1708.66,-469.11 1709.01,-479.7 1715.53,-477.17"/>
</g>
<!-- kg -->
<g id="node36" class="node">
<title>kg</title>
<ellipse fill="none" stroke="black" cx="1608" cy="-882" rx="27" ry="18"/>
<text text-anchor="middle" x="1608" y="-876.95" font-family="Times,serif" font-size="14.00">kg</text>
</g>
<!-- dn&#45;&gt;kg -->
<g id="edge28" class="edge">
<title>dn&#45;&gt;kg</title>
<path fill="none" stroke="black" d="M1613.86,-827.79C1614.66,-835.25 1614.92,-844.24 1614.64,-852.69"/>
<polygon fill="black" stroke="black" points="1611.16,-852.33 1613.98,-862.54 1618.14,-852.8 1611.16,-852.33"/>
</g>
<!-- vt -->
<g id="node37" class="node">
<title>vt</title>
<ellipse fill="none" stroke="black" cx="1177" cy="-738" rx="27" ry="18"/>
<text text-anchor="middle" x="1177" y="-732.95" font-family="Times,serif" font-size="14.00">vt</text>
</g>
<!-- dn&#45;&gt;vt -->
<g id="edge29" class="edge">
<title>dn&#45;&gt;vt</title>
<path fill="none" stroke="black" d="M1581.46,-805.78C1522.03,-798.42 1373.83,-779.19 1251,-756 1238.63,-753.66 1225.2,-750.71 1213.21,-747.92"/>
<polygon fill="black" stroke="black" points="1214.25,-744.57 1203.71,-745.66 1212.64,-751.38 1214.25,-744.57"/>
</g>
<!-- tg -->
<g id="node38" class="node">
<title>tg</title>
<ellipse fill="none" stroke="black" cx="1830" cy="-738" rx="27" ry="18"/>
<text text-anchor="middle" x="1830" y="-732.95" font-family="Times,serif" font-size="14.00">tg</text>
</g>
<!-- dn&#45;&gt;tg -->
<g id="edge30" class="edge">
<title>dn&#45;&gt;tg</title>
<path fill="none" stroke="black" d="M1633.16,-802.56C1668.37,-793.33 1734.19,-775.32 1789,-756 1791.73,-755.04 1794.55,-753.99 1797.37,-752.9"/>
<polygon fill="black" stroke="black" points="1798.66,-756.15 1806.64,-749.18 1796.05,-749.66 1798.66,-756.15"/>
</g>
<!-- fs -->
<g id="node39" class="node">
<title>fs</title>
<ellipse fill="none" stroke="black" cx="1530" cy="-234" rx="27" ry="18"/>
<text text-anchor="middle" x="1530" y="-228.95" font-family="Times,serif" font-size="14.00">fs</text>
</g>
<!-- dn&#45;&gt;fs -->
<g id="edge31" class="edge">
<title>dn&#45;&gt;fs</title>
<path fill="none" stroke="black" d="M1591.02,-795.7C1563.69,-772.67 1513,-722.47 1513,-667 1513,-667 1513,-667 1513,-377 1513,-337.24 1519.65,-291.67 1524.63,-263.1"/>
<polygon fill="black" stroke="black" points="1528.04,-263.92 1526.37,-253.46 1521.15,-262.68 1528.04,-263.92"/>
</g>
<!-- pn -->
<g id="node40" class="node">
<title>pn</title>
<ellipse fill="none" stroke="black" cx="1663" cy="-594" rx="27" ry="18"/>
<text text-anchor="middle" x="1663" y="-588.95" font-family="Times,serif" font-size="14.00">pn</text>
</g>
<!-- dn&#45;&gt;pn -->
<g id="edge32" class="edge">
<title>dn&#45;&gt;pn</title>
<path fill="none" stroke="black" d="M1611.56,-791.97C1617.83,-762.46 1631.54,-700.02 1646,-648 1648.32,-639.65 1651.1,-630.64 1653.74,-622.46"/>
<polygon fill="black" stroke="black" points="1657.04,-623.64 1656.83,-613.05 1650.39,-621.46 1657.04,-623.64"/>
</g>
<!-- hf&#45;&gt;dn -->
<g id="edge93" class="edge">
<title>hf&#45;&gt;dn</title>
<path fill="none" stroke="black" d="M1537.3,-95.11C1622.43,-109.16 1885,-158.51 1885,-233 1885,-667 1885,-667 1885,-667 1885,-707.45 1894.71,-727.51 1866,-756 1835.44,-786.32 1710.28,-800.71 1646.19,-806.2"/>
<polygon fill="black" stroke="black" points="1646.16,-802.69 1636.48,-807 1646.74,-809.67 1646.16,-802.69"/>
</g>
<!-- rn -->
<g id="node54" class="node">
<title>rn</title>
<ellipse fill="none" stroke="black" cx="1474" cy="-18" rx="27" ry="18"/>
<text text-anchor="middle" x="1474" y="-12.95" font-family="Times,serif" font-size="14.00">rn</text>
</g>
<!-- hf&#45;&gt;rn -->
<g id="edge94" class="edge">
<title>hf&#45;&gt;rn</title>
<path fill="none" stroke="black" d="M1502.42,-72.76C1498.08,-64.55 1492.7,-54.37 1487.79,-45.09"/>
<polygon fill="black" stroke="black" points="1491.01,-43.69 1483.24,-36.49 1484.82,-46.96 1491.01,-43.69"/>
</g>
<!-- lp -->
<g id="node10" class="node">
<title>lp</title>
<ellipse fill="none" stroke="black" cx="636" cy="-450" rx="27" ry="18"/>
<text text-anchor="middle" x="636" y="-444.95" font-family="Times,serif" font-size="14.00">lp</text>
</g>
<!-- dm -->
<g id="node11" class="node">
<title>dm</title>
<ellipse fill="none" stroke="black" cx="579" cy="-378" rx="27" ry="18"/>
<text text-anchor="middle" x="579" y="-372.95" font-family="Times,serif" font-size="14.00">dm</text>
</g>
<!-- lp&#45;&gt;dm -->
<g id="edge6" class="edge">
<title>lp&#45;&gt;dm</title>
<path fill="none" stroke="black" d="M623.63,-433.81C616.31,-424.82 606.87,-413.23 598.57,-403.03"/>
<polygon fill="black" stroke="black" points="601.33,-400.88 592.3,-395.33 595.9,-405.3 601.33,-400.88"/>
</g>
<!-- dm&#45;&gt;hr -->
<g id="edge40" class="edge">
<title>dm&#45;&gt;hr</title>
<path fill="none" stroke="black" d="M572.46,-360.05C569.48,-352.32 565.87,-342.96 562.52,-334.27"/>
<polygon fill="black" stroke="black" points="565.88,-333.27 559.02,-325.2 559.35,-335.79 565.88,-333.27"/>
</g>
<!-- dm&#45;&gt;kb -->
<g id="edge39" class="edge">
<title>dm&#45;&gt;kb</title>
<path fill="none" stroke="black" d="M576.88,-396.2C572.58,-435.13 564.55,-532.79 581,-612 588.43,-647.78 606.31,-686.08 619.24,-710.71"/>
<polygon fill="black" stroke="black" points="616.08,-712.22 623.9,-719.37 622.24,-708.9 616.08,-712.22"/>
</g>
<!-- lf -->
<g id="node12" class="node">
<title>lf</title>
<ellipse fill="none" stroke="black" cx="317" cy="-594" rx="27" ry="18"/>
<text text-anchor="middle" x="317" y="-588.95" font-family="Times,serif" font-size="14.00">lf</text>
</g>
<!-- lf&#45;&gt;sn -->
<g id="edge7" class="edge">
<title>lf&#45;&gt;sn</title>
<path fill="none" stroke="black" d="M295.48,-582.82C270.6,-571.05 229.41,-551.57 200.82,-538.05"/>
<polygon fill="black" stroke="black" points="202.45,-534.95 191.91,-533.84 199.46,-541.28 202.45,-534.95"/>
</g>
<!-- lf&#45;&gt;vk -->
<g id="edge8" class="edge">
<title>lf&#45;&gt;vk</title>
<path fill="none" stroke="black" d="M303.18,-609.63C289.99,-620.61 270.06,-635.69 253.41,-647.35"/>
<polygon fill="black" stroke="black" points="251.58,-644.36 245.31,-652.9 255.53,-650.13 251.58,-644.36"/>
</g>
<!-- vk&#45;&gt;bc -->
<g id="edge47" class="edge">
<title>vk&#45;&gt;bc</title>
<path fill="none" stroke="black" d="M237.75,-681.93C245.96,-691.9 255.62,-705.75 260,-720 264.7,-735.29 263.37,-740.36 260,-756 245.51,-823.32 201.84,-892.9 176.92,-928.6"/>
<polygon fill="black" stroke="black" points="174.24,-926.33 171.31,-936.51 179.95,-930.38 174.24,-926.33"/>
</g>
<!-- vk&#45;&gt;sn -->
<g id="edge52" class="edge">
<title>vk&#45;&gt;sn</title>
<path fill="none" stroke="black" d="M217.47,-648.15C208.13,-624.03 190.83,-579.36 179.62,-550.43"/>
<polygon fill="black" stroke="black" points="182.94,-549.3 176.06,-541.24 176.41,-551.83 182.94,-549.3"/>
</g>
<!-- vk&#45;&gt;sj -->
<g id="edge48" class="edge">
<title>vk&#45;&gt;sj</title>
<path fill="none" stroke="black" d="M208.77,-650.6C187.12,-628.99 148.38,-585.8 133,-540 126.48,-520.6 126.17,-497.45 127.39,-479.63"/>
<polygon fill="black" stroke="black" points="130.87,-480.03 128.29,-469.76 123.9,-479.4 130.87,-480.03"/>
</g>
<!-- vk&#45;&gt;lf -->
<g id="edge50" class="edge">
<title>vk&#45;&gt;lf</title>
<path fill="none" stroke="black" d="M238.09,-650.15C251.25,-639.22 270.96,-624.3 287.48,-612.73"/>
<polygon fill="black" stroke="black" points="289.25,-615.77 295.51,-607.22 285.29,-609.99 289.25,-615.77"/>
</g>
<!-- jd -->
<g id="node46" class="node">
<title>jd</title>
<ellipse fill="none" stroke="black" cx="235" cy="-162" rx="27" ry="18"/>
<text text-anchor="middle" x="235" y="-156.95" font-family="Times,serif" font-size="14.00">jd</text>
</g>
<!-- vk&#45;&gt;jd -->
<g id="edge49" class="edge">
<title>vk&#45;&gt;jd</title>
<path fill="none" stroke="black" d="M231.51,-648.34C242.58,-622.2 262,-569.7 262,-523 262,-523 262,-523 262,-305 262,-264.64 251.34,-218.94 243.42,-190.54"/>
<polygon fill="black" stroke="black" points="246.89,-189.94 240.75,-181.31 240.16,-191.88 246.89,-189.94"/>
</g>
<!-- xr -->
<g id="node47" class="node">
<title>xr</title>
<ellipse fill="none" stroke="black" cx="765" cy="-594" rx="27" ry="18"/>
<text text-anchor="middle" x="765" y="-588.95" font-family="Times,serif" font-size="14.00">xr</text>
</g>
<!-- vk&#45;&gt;xr -->
<g id="edge51" class="edge">
<title>vk&#45;&gt;xr</title>
<path fill="none" stroke="black" d="M250.64,-661.97C318.07,-654.24 500.97,-632.93 653,-612 677.94,-608.57 705.94,-604.32 727.7,-600.93"/>
<polygon fill="black" stroke="black" points="727.95,-604.43 737.28,-599.42 726.86,-597.51 727.95,-604.43"/>
</g>
<!-- fv -->
<g id="node14" class="node">
<title>fv</title>
<ellipse fill="none" stroke="black" cx="1006" cy="-594" rx="27" ry="18"/>
<text text-anchor="middle" x="1006" y="-588.95" font-family="Times,serif" font-size="14.00">fv</text>
</g>
<!-- sq -->
<g id="node15" class="node">
<title>sq</title>
<ellipse fill="none" stroke="black" cx="932" cy="-522" rx="27" ry="18"/>
<text text-anchor="middle" x="932" y="-516.95" font-family="Times,serif" font-size="14.00">sq</text>
</g>
<!-- fv&#45;&gt;sq -->
<g id="edge9" class="edge">
<title>fv&#45;&gt;sq</title>
<path fill="none" stroke="black" d="M991.02,-578.83C980.76,-569.13 966.94,-556.06 955.26,-545"/>
<polygon fill="black" stroke="black" points="957.98,-542.75 948.31,-538.42 953.17,-547.84 957.98,-542.75"/>
</g>
<!-- rx -->
<g id="node26" class="node">
<title>rx</title>
<ellipse fill="none" stroke="black" cx="932" cy="-450" rx="27" ry="18"/>
<text text-anchor="middle" x="932" y="-444.95" font-family="Times,serif" font-size="14.00">rx</text>
</g>
<!-- sq&#45;&gt;rx -->
<g id="edge18" class="edge">
<title>sq&#45;&gt;rx</title>
<path fill="none" stroke="black" d="M932,-503.7C932,-496.41 932,-487.73 932,-479.54"/>
<polygon fill="black" stroke="black" points="935.5,-479.62 932,-469.62 928.5,-479.62 935.5,-479.62"/>
</g>
<!-- gd -->
<g id="node16" class="node">
<title>gd</title>
<ellipse fill="none" stroke="black" cx="1113" cy="-882" rx="27" ry="18"/>
<text text-anchor="middle" x="1113" y="-876.95" font-family="Times,serif" font-size="14.00">gd</text>
</g>
<!-- vm -->
<g id="node17" class="node">
<title>vm</title>
<ellipse fill="none" stroke="black" cx="1194" cy="-666" rx="27" ry="18"/>
<text text-anchor="middle" x="1194" y="-660.95" font-family="Times,serif" font-size="14.00">vm</text>
</g>
<!-- gd&#45;&gt;vm -->
<g id="edge10" class="edge">
<title>gd&#45;&gt;vm</title>
<path fill="none" stroke="black" d="M1107.35,-863.95C1103.77,-833.35 1107.17,-767.84 1132,-720 1139.31,-705.92 1151.68,-693.23 1163.6,-683.8"/>
<polygon fill="black" stroke="black" points="1165.32,-686.88 1171.32,-678.15 1161.18,-681.23 1165.32,-686.88"/>
</g>
<!-- gr -->
<g id="node18" class="node">
<title>gr</title>
<ellipse fill="none" stroke="black" cx="1232" cy="-810" rx="27" ry="18"/>
<text text-anchor="middle" x="1232" y="-804.95" font-family="Times,serif" font-size="14.00">gr</text>
</g>
<!-- gd&#45;&gt;gr -->
<g id="edge11" class="edge">
<title>gd&#45;&gt;gr</title>
<path fill="none" stroke="black" d="M1132.92,-869.28C1152,-858.06 1181.01,-840.99 1202.72,-828.23"/>
<polygon fill="black" stroke="black" points="1204.26,-831.38 1211.11,-823.29 1200.71,-825.34 1204.26,-831.38"/>
</g>
<!-- vm&#45;&gt;fv -->
<g id="edge70" class="edge">
<title>vm&#45;&gt;fv</title>
<path fill="none" stroke="black" d="M1170.19,-656.8C1141.02,-646.67 1090.13,-628.71 1047,-612 1044.36,-610.98 1041.63,-609.9 1038.9,-608.8"/>
<polygon fill="black" stroke="black" points="1040.46,-605.66 1029.88,-605.12 1037.82,-612.14 1040.46,-605.66"/>
</g>
<!-- vm&#45;&gt;gd -->
<g id="edge71" class="edge">
<title>vm&#45;&gt;gd</title>
<path fill="none" stroke="black" d="M1181.61,-681.97C1171.34,-691.55 1157.79,-704.99 1150,-720 1127.88,-762.61 1122.77,-819.24 1119.25,-852.73"/>
<polygon fill="black" stroke="black" points="1115.79,-852.12 1118.16,-862.45 1122.75,-852.9 1115.79,-852.12"/>
</g>
<!-- dl -->
<g id="node24" class="node">
<title>dl</title>
<ellipse fill="none" stroke="black" cx="1230" cy="-450" rx="27" ry="18"/>
<text text-anchor="middle" x="1230" y="-444.95" font-family="Times,serif" font-size="14.00">dl</text>
</g>
<!-- vm&#45;&gt;dl -->
<g id="edge67" class="edge">
<title>vm&#45;&gt;dl</title>
<path fill="none" stroke="black" d="M1196.89,-647.85C1203.06,-611.14 1217.61,-524.66 1225.2,-479.53"/>
<polygon fill="black" stroke="black" points="1228.64,-480.17 1226.85,-469.73 1221.74,-479.01 1228.64,-480.17"/>
</g>
<!-- nn -->
<g id="node25" class="node">
<title>nn</title>
<ellipse fill="none" stroke="black" cx="1211" cy="-378" rx="27" ry="18"/>
<text text-anchor="middle" x="1211" y="-372.95" font-family="Times,serif" font-size="14.00">nn</text>
</g>
<!-- vm&#45;&gt;nn -->
<g id="edge69" class="edge">
<title>vm&#45;&gt;nn</title>
<path fill="none" stroke="black" d="M1192.18,-647.61C1188.49,-608.7 1181.53,-511.73 1194,-432 1195.32,-423.56 1197.75,-414.64 1200.38,-406.56"/>
<polygon fill="black" stroke="black" points="1203.62,-407.88 1203.61,-397.29 1197.01,-405.58 1203.62,-407.88"/>
</g>
<!-- lg -->
<g id="node28" class="node">
<title>lg</title>
<ellipse fill="none" stroke="black" cx="1344" cy="-594" rx="27" ry="18"/>
<text text-anchor="middle" x="1344" y="-588.95" font-family="Times,serif" font-size="14.00">lg</text>
</g>
<!-- vm&#45;&gt;lg -->
<g id="edge72" class="edge">
<title>vm&#45;&gt;lg</title>
<path fill="none" stroke="black" d="M1215.81,-654.82C1241.03,-643.05 1282.77,-623.57 1311.75,-610.05"/>
<polygon fill="black" stroke="black" points="1313.21,-613.23 1320.79,-605.83 1310.25,-606.89 1313.21,-613.23"/>
</g>
<!-- fk -->
<g id="node30" class="node">
<title>fk</title>
<ellipse fill="none" stroke="black" cx="1211" cy="-306" rx="27" ry="18"/>
<text text-anchor="middle" x="1211" y="-300.95" font-family="Times,serif" font-size="14.00">fk</text>
</g>
<!-- vm&#45;&gt;fk -->
<g id="edge68" class="edge">
<title>vm&#45;&gt;fk</title>
<path fill="none" stroke="black" d="M1212.03,-652.2C1238.66,-631.99 1287.14,-589.84 1304,-540 1330.4,-461.94 1266.99,-372 1232.09,-330.38"/>
<polygon fill="black" stroke="black" points="1234.87,-328.24 1225.7,-322.93 1229.56,-332.8 1234.87,-328.24"/>
</g>
<!-- gr&#45;&gt;vm -->
<g id="edge75" class="edge">
<title>gr&#45;&gt;vm</title>
<path fill="none" stroke="black" d="M1229.03,-791.77C1225.75,-773.72 1220.01,-744.62 1213,-720 1210.57,-711.47 1207.48,-702.33 1204.49,-694.08"/>
<polygon fill="black" stroke="black" points="1207.86,-693.09 1201.1,-684.94 1201.3,-695.53 1207.86,-693.09"/>
</g>
<!-- vb -->
<g id="node27" class="node">
<title>vb</title>
<ellipse fill="none" stroke="black" cx="1287" cy="-738" rx="27" ry="18"/>
<text text-anchor="middle" x="1287" y="-732.95" font-family="Times,serif" font-size="14.00">vb</text>
</g>
<!-- gr&#45;&gt;vb -->
<g id="edge74" class="edge">
<title>gr&#45;&gt;vb</title>
<path fill="none" stroke="black" d="M1244.21,-793.46C1251.11,-784.67 1259.91,-773.48 1267.73,-763.53"/>
<polygon fill="black" stroke="black" points="1270.47,-765.71 1273.89,-755.68 1264.96,-761.38 1270.47,-765.71"/>
</g>
<!-- jt -->
<g id="node19" class="node">
<title>jt</title>
<ellipse fill="none" stroke="black" cx="1135" cy="-162" rx="27" ry="18"/>
<text text-anchor="middle" x="1135" y="-156.95" font-family="Times,serif" font-size="14.00">jt</text>
</g>
<!-- jt&#45;&gt;vm -->
<g id="edge12" class="edge">
<title>jt&#45;&gt;vm</title>
<path fill="none" stroke="black" d="M1127.89,-179.7C1117.4,-205.89 1099,-258.46 1099,-305 1099,-523 1099,-523 1099,-523 1099,-573.05 1140.27,-618.81 1168.41,-644.2"/>
<polygon fill="black" stroke="black" points="1166.04,-646.77 1175.88,-650.71 1170.64,-641.5 1166.04,-646.77"/>
</g>
<!-- lz -->
<g id="node20" class="node">
<title>lz</title>
<ellipse fill="none" stroke="black" cx="1135" cy="-90" rx="27" ry="18"/>
<text text-anchor="middle" x="1135" y="-84.95" font-family="Times,serif" font-size="14.00">lz</text>
</g>
<!-- jt&#45;&gt;lz -->
<g id="edge13" class="edge">
<title>jt&#45;&gt;lz</title>
<path fill="none" stroke="black" d="M1135,-143.7C1135,-136.41 1135,-127.73 1135,-119.54"/>
<polygon fill="black" stroke="black" points="1138.5,-119.62 1135,-109.62 1131.5,-119.62 1138.5,-119.62"/>
</g>
<!-- lz&#45;&gt;vm -->
<g id="edge79" class="edge">
<title>lz&#45;&gt;vm</title>
<path fill="none" stroke="black" d="M1161.77,-92.91C1228.88,-99.3 1399,-126.05 1399,-233 1399,-523 1399,-523 1399,-523 1399,-563.45 1407.62,-582.45 1380,-612 1341.85,-652.8 1274.74,-662.96 1232.41,-665.06"/>
<polygon fill="black" stroke="black" points="1232.56,-661.56 1222.69,-665.41 1232.81,-668.55 1232.56,-661.56"/>
</g>
<!-- zc -->
<g id="node53" class="node">
<title>zc</title>
<ellipse fill="none" stroke="black" cx="1098" cy="-18" rx="27" ry="18"/>
<text text-anchor="middle" x="1098" y="-12.95" font-family="Times,serif" font-size="14.00">zc</text>
</g>
<!-- lz&#45;&gt;zc -->
<g id="edge80" class="edge">
<title>lz&#45;&gt;zc</title>
<path fill="none" stroke="black" d="M1126.42,-72.76C1122.08,-64.55 1116.7,-54.37 1111.79,-45.09"/>
<polygon fill="black" stroke="black" points="1115.01,-43.69 1107.24,-36.49 1108.82,-46.96 1115.01,-43.69"/>
</g>
<!-- xf -->
<g id="node21" class="node">
<title>xf</title>
<ellipse fill="none" stroke="black" cx="224" cy="-738" rx="27" ry="18"/>
<text text-anchor="middle" x="224" y="-732.95" font-family="Times,serif" font-size="14.00">xf</text>
</g>
<!-- xf&#45;&gt;vk -->
<g id="edge14" class="edge">
<title>xf&#45;&gt;vk</title>
<path fill="none" stroke="black" d="M224,-719.7C224,-712.41 224,-703.73 224,-695.54"/>
<polygon fill="black" stroke="black" points="227.5,-695.62 224,-685.62 220.5,-695.62 227.5,-695.62"/>
</g>
<!-- nf -->
<g id="node22" class="node">
<title>nf</title>
<ellipse fill="none" stroke="black" cx="636" cy="-522" rx="27" ry="18"/>
<text text-anchor="middle" x="636" y="-516.95" font-family="Times,serif" font-size="14.00">nf</text>
</g>
<!-- nf&#45;&gt;lp -->
<g id="edge15" class="edge">
<title>nf&#45;&gt;lp</title>
<path fill="none" stroke="black" d="M636,-503.7C636,-496.41 636,-487.73 636,-479.54"/>
<polygon fill="black" stroke="black" points="639.5,-479.62 636,-469.62 632.5,-479.62 639.5,-479.62"/>
</g>
<!-- nf&#45;&gt;kb -->
<g id="edge16" class="edge">
<title>nf&#45;&gt;kb</title>
<path fill="none" stroke="black" d="M642.89,-539.86C646.7,-550.12 651.06,-563.59 653,-576 660.28,-622.56 649.91,-677.09 641.86,-709.24"/>
<polygon fill="black" stroke="black" points="638.57,-708 639.42,-718.56 645.34,-709.77 638.57,-708"/>
</g>
<!-- kb&#45;&gt;hr -->
<g id="edge61" class="edge">
<title>kb&#45;&gt;hr</title>
<path fill="none" stroke="black" d="M618.9,-722.83C608.83,-712.75 595.86,-698.48 587,-684 546.89,-618.46 524,-599.84 524,-523 524,-523 524,-523 524,-449 524,-408.59 535.05,-362.9 543.27,-334.52"/>
<polygon fill="black" stroke="black" points="546.52,-335.87 546.03,-325.29 539.81,-333.86 546.52,-335.87"/>
</g>
<!-- kb&#45;&gt;lp -->
<g id="edge62" class="edge">
<title>kb&#45;&gt;lp</title>
<path fill="none" stroke="black" d="M645.23,-721.62C651.98,-711.48 660.01,-697.6 664,-684 686.54,-607.16 695.54,-580.54 672,-504 668.82,-493.65 662.85,-483.51 656.67,-474.91"/>
<polygon fill="black" stroke="black" points="659.55,-472.91 650.67,-467.13 654.01,-477.19 659.55,-472.91"/>
</g>
<!-- gj -->
<g id="node32" class="node">
<title>gj</title>
<ellipse fill="none" stroke="black" cx="503" cy="-666" rx="27" ry="18"/>
<text text-anchor="middle" x="503" y="-660.95" font-family="Times,serif" font-size="14.00">gj</text>
</g>
<!-- kb&#45;&gt;gj -->
<g id="edge59" class="edge">
<title>kb&#45;&gt;gj</title>
<path fill="none" stroke="black" d="M613.24,-725.91C591.78,-714.44 558.04,-696.41 533.53,-683.32"/>
<polygon fill="black" stroke="black" points="535.46,-680.38 525,-678.75 532.17,-686.55 535.46,-680.38"/>
</g>
<!-- kk -->
<g id="node43" class="node">
<title>kk</title>
<ellipse fill="none" stroke="black" cx="913" cy="-666" rx="27" ry="18"/>
<text text-anchor="middle" x="913" y="-660.95" font-family="Times,serif" font-size="14.00">kk</text>
</g>
<!-- kb&#45;&gt;kk -->
<g id="edge58" class="edge">
<title>kb&#45;&gt;kk</title>
<path fill="none" stroke="black" d="M660.1,-732.72C704.32,-725.14 796.52,-707.85 872,-684 874.76,-683.13 877.6,-682.14 880.43,-681.1"/>
<polygon fill="black" stroke="black" points="881.7,-684.36 889.72,-677.45 879.14,-677.85 881.7,-684.36"/>
</g>
<!-- gt -->
<g id="node51" class="node">
<title>gt</title>
<ellipse fill="none" stroke="black" cx="634" cy="-882" rx="27" ry="18"/>
<text text-anchor="middle" x="634" y="-876.95" font-family="Times,serif" font-size="14.00">gt</text>
</g>
<!-- kb&#45;&gt;gt -->
<g id="edge60" class="edge">
<title>kb&#45;&gt;gt</title>
<path fill="none" stroke="black" d="M638.59,-756.19C641.11,-780.1 641.43,-823.72 639.53,-852.53"/>
<polygon fill="black" stroke="black" points="636.05,-852.11 638.71,-862.36 643.03,-852.69 636.05,-852.11"/>
</g>
<!-- dl&#45;&gt;nn -->
<g id="edge17" class="edge">
<title>dl&#45;&gt;nn</title>
<path fill="none" stroke="black" d="M1225.4,-432.05C1223.35,-424.49 1220.87,-415.37 1218.56,-406.85"/>
<polygon fill="black" stroke="black" points="1221.95,-405.98 1215.95,-397.25 1215.2,-407.82 1221.95,-405.98"/>
</g>
<!-- nn&#45;&gt;fk -->
<g id="edge95" class="edge">
<title>nn&#45;&gt;fk</title>
<path fill="none" stroke="black" d="M1211,-359.7C1211,-352.41 1211,-343.73 1211,-335.54"/>
<polygon fill="black" stroke="black" points="1214.5,-335.62 1211,-325.62 1207.5,-335.62 1214.5,-335.62"/>
</g>
<!-- vb&#45;&gt;vm -->
<g id="edge19" class="edge">
<title>vb&#45;&gt;vm</title>
<path fill="none" stroke="black" d="M1269.51,-723.83C1255.61,-713.37 1235.95,-698.58 1220.18,-686.7"/>
<polygon fill="black" stroke="black" points="1222.72,-684.24 1212.62,-681.02 1218.51,-689.83 1222.72,-684.24"/>
</g>
<!-- vb&#45;&gt;lg -->
<g id="edge20" class="edge">
<title>vb&#45;&gt;lg</title>
<path fill="none" stroke="black" d="M1293.76,-720.15C1303.45,-696.03 1321.38,-651.36 1332.99,-622.43"/>
<polygon fill="black" stroke="black" points="1336.21,-623.81 1336.68,-613.23 1329.71,-621.21 1336.21,-623.81"/>
</g>
<!-- pv -->
<g id="node58" class="node">
<title>pv</title>
<ellipse fill="none" stroke="black" cx="1268" cy="-522" rx="27" ry="18"/>
<text text-anchor="middle" x="1268" y="-516.95" font-family="Times,serif" font-size="14.00">pv</text>
</g>
<!-- lg&#45;&gt;pv -->
<g id="edge98" class="edge">
<title>lg&#45;&gt;pv</title>
<path fill="none" stroke="black" d="M1328.62,-578.83C1318.01,-569.06 1303.7,-555.88 1291.65,-544.78"/>
<polygon fill="black" stroke="black" points="1294.2,-542.37 1284.47,-538.17 1289.45,-547.52 1294.2,-542.37"/>
</g>
<!-- fl&#45;&gt;kb -->
<g id="edge46" class="edge">
<title>fl&#45;&gt;kb</title>
<path fill="none" stroke="black" d="M687.35,-171.59C730.87,-189.27 820,-234.13 820,-305 820,-595 820,-595 820,-595 820,-669.72 724,-710.37 669.93,-727.34"/>
<polygon fill="black" stroke="black" points="669.1,-723.93 660.53,-730.17 671.12,-730.64 669.1,-723.93"/>
</g>
<!-- zl -->
<g id="node45" class="node">
<title>zl</title>
<ellipse fill="none" stroke="black" cx="664" cy="-90" rx="27" ry="18"/>
<text text-anchor="middle" x="664" y="-84.95" font-family="Times,serif" font-size="14.00">zl</text>
</g>
<!-- fl&#45;&gt;zl -->
<g id="edge45" class="edge">
<title>fl&#45;&gt;zl</title>
<path fill="none" stroke="black" d="M664,-143.7C664,-136.41 664,-127.73 664,-119.54"/>
<polygon fill="black" stroke="black" points="667.5,-119.62 664,-109.62 660.5,-119.62 667.5,-119.62"/>
</g>
<!-- fz -->
<g id="node31" class="node">
<title>fz</title>
<ellipse fill="none" stroke="black" cx="1154" cy="-234" rx="27" ry="18"/>
<text text-anchor="middle" x="1154" y="-228.95" font-family="Times,serif" font-size="14.00">fz</text>
</g>
<!-- fk&#45;&gt;fz -->
<g id="edge23" class="edge">
<title>fk&#45;&gt;fz</title>
<path fill="none" stroke="black" d="M1198.63,-289.81C1191.31,-280.82 1181.87,-269.23 1173.57,-259.03"/>
<polygon fill="black" stroke="black" points="1176.33,-256.88 1167.3,-251.33 1170.9,-261.3 1176.33,-256.88"/>
</g>
<!-- fz&#45;&gt;vm -->
<g id="edge36" class="edge">
<title>fz&#45;&gt;vm</title>
<path fill="none" stroke="black" d="M1150.64,-251.97C1145.69,-278.52 1137,-331.56 1137,-377 1137,-523 1137,-523 1137,-523 1137,-566.34 1160.15,-612.12 1176.95,-639.62"/>
<polygon fill="black" stroke="black" points="1173.9,-641.35 1182.2,-647.94 1179.82,-637.62 1173.9,-641.35"/>
</g>
<!-- fz&#45;&gt;jt -->
<g id="edge37" class="edge">
<title>fz&#45;&gt;jt</title>
<path fill="none" stroke="black" d="M1149.4,-216.05C1147.35,-208.49 1144.87,-199.37 1142.56,-190.85"/>
<polygon fill="black" stroke="black" points="1145.95,-189.98 1139.95,-181.25 1139.2,-191.82 1145.95,-189.98"/>
</g>
<!-- pq -->
<g id="node33" class="node">
<title>pq</title>
<ellipse fill="none" stroke="black" cx="617" cy="-594" rx="27" ry="18"/>
<text text-anchor="middle" x="617" y="-588.95" font-family="Times,serif" font-size="14.00">pq</text>
</g>
<!-- gj&#45;&gt;pq -->
<g id="edge24" class="edge">
<title>gj&#45;&gt;pq</title>
<path fill="none" stroke="black" d="M522.34,-653.13C540.27,-642.11 567.21,-625.57 587.77,-612.95"/>
<polygon fill="black" stroke="black" points="589.59,-615.94 596.28,-607.72 585.92,-609.97 589.59,-615.94"/>
</g>
<!-- pq&#45;&gt;nf -->
<g id="edge27" class="edge">
<title>pq&#45;&gt;nf</title>
<path fill="none" stroke="black" d="M621.6,-576.05C623.65,-568.49 626.13,-559.37 628.44,-550.85"/>
<polygon fill="black" stroke="black" points="631.8,-551.82 631.05,-541.25 625.05,-549.98 631.8,-551.82"/>
</g>
<!-- pq&#45;&gt;kb -->
<g id="edge26" class="edge">
<title>pq&#45;&gt;kb</title>
<path fill="none" stroke="black" d="M619.05,-612.11C621.9,-635.92 627.1,-679.37 630.55,-708.22"/>
<polygon fill="black" stroke="black" points="627.07,-708.57 631.74,-718.09 634.02,-707.74 627.07,-708.57"/>
</g>
<!-- jh -->
<g id="node35" class="node">
<title>jh</title>
<ellipse fill="none" stroke="black" cx="1701" cy="-378" rx="27" ry="18"/>
<text text-anchor="middle" x="1701" y="-372.95" font-family="Times,serif" font-size="14.00">jh</text>
</g>
<!-- jx&#45;&gt;jh -->
<g id="edge25" class="edge">
<title>jx&#45;&gt;jh</title>
<path fill="none" stroke="black" d="M1701,-431.7C1701,-424.41 1701,-415.73 1701,-407.54"/>
<polygon fill="black" stroke="black" points="1704.5,-407.62 1701,-397.62 1697.5,-407.62 1704.5,-407.62"/>
</g>
<!-- jh&#45;&gt;dn -->
<g id="edge81" class="edge">
<title>jh&#45;&gt;dn</title>
<path fill="none" stroke="black" d="M1714.92,-393.84C1736.35,-418.32 1775,-469.57 1775,-521 1775,-667 1775,-667 1775,-667 1775,-735.85 1691.6,-778.3 1642.68,-797.29"/>
<polygon fill="black" stroke="black" points="1641.49,-793.99 1633.35,-800.77 1643.94,-800.55 1641.49,-793.99"/>
</g>
<!-- ln -->
<g id="node41" class="node">
<title>ln</title>
<ellipse fill="none" stroke="black" cx="1568" cy="-306" rx="27" ry="18"/>
<text text-anchor="middle" x="1568" y="-300.95" font-family="Times,serif" font-size="14.00">ln</text>
</g>
<!-- jh&#45;&gt;ln -->
<g id="edge82" class="edge">
<title>jh&#45;&gt;ln</title>
<path fill="none" stroke="black" d="M1680.22,-366.06C1658.36,-354.56 1623.71,-336.32 1598.7,-323.16"/>
<polygon fill="black" stroke="black" points="1600.45,-320.13 1589.97,-318.57 1597.19,-326.32 1600.45,-320.13"/>
</g>
<!-- kg&#45;&gt;dn -->
<g id="edge92" class="edge">
<title>kg&#45;&gt;dn</title>
<path fill="none" stroke="black" d="M1602.12,-864.05C1601.33,-856.57 1601.08,-847.58 1601.37,-839.14"/>
<polygon fill="black" stroke="black" points="1604.85,-839.51 1602.04,-829.3 1597.87,-839.04 1604.85,-839.51"/>
</g>
<!-- kg&#45;&gt;tg -->
<g id="edge91" class="edge">
<title>kg&#45;&gt;tg</title>
<path fill="none" stroke="black" d="M1626.93,-868.89C1665.92,-843.95 1755.4,-786.72 1801.46,-757.26"/>
<polygon fill="black" stroke="black" points="1803.31,-760.23 1809.85,-751.89 1799.54,-754.33 1803.31,-760.23"/>
</g>
<!-- vt&#45;&gt;sq -->
<g id="edge44" class="edge">
<title>vt&#45;&gt;sq</title>
<path fill="none" stroke="black" d="M1153.58,-728.49C1111.47,-712.11 1022.47,-672.36 970,-612 954.76,-594.46 944.89,-569.9 939.05,-551.02"/>
<polygon fill="black" stroke="black" points="942.45,-550.21 936.33,-541.57 935.73,-552.15 942.45,-550.21"/>
</g>
<!-- tv -->
<g id="node44" class="node">
<title>tv</title>
<ellipse fill="none" stroke="black" cx="1682" cy="-666" rx="27" ry="18"/>
<text text-anchor="middle" x="1682" y="-660.95" font-family="Times,serif" font-size="14.00">tv</text>
</g>
<!-- tg&#45;&gt;tv -->
<g id="edge43" class="edge">
<title>tg&#45;&gt;tv</title>
<path fill="none" stroke="black" d="M1808.48,-726.82C1783.6,-715.05 1742.41,-695.57 1713.82,-682.05"/>
<polygon fill="black" stroke="black" points="1715.45,-678.95 1704.91,-677.84 1712.46,-685.28 1715.45,-678.95"/>
</g>
<!-- fs&#45;&gt;df -->
<g id="edge38" class="edge">
<title>fs&#45;&gt;df</title>
<path fill="none" stroke="black" d="M1525.4,-216.05C1523.35,-208.49 1520.87,-199.37 1518.56,-190.85"/>
<polygon fill="black" stroke="black" points="1521.95,-189.98 1515.95,-181.25 1515.2,-191.82 1521.95,-189.98"/>
</g>
<!-- pf -->
<g id="node52" class="node">
<title>pf</title>
<ellipse fill="none" stroke="black" cx="1663" cy="-522" rx="27" ry="18"/>
<text text-anchor="middle" x="1663" y="-516.95" font-family="Times,serif" font-size="14.00">pf</text>
</g>
<!-- pn&#45;&gt;pf -->
<g id="edge65" class="edge">
<title>pn&#45;&gt;pf</title>
<path fill="none" stroke="black" d="M1663,-575.7C1663,-568.41 1663,-559.73 1663,-551.54"/>
<polygon fill="black" stroke="black" points="1666.5,-551.62 1663,-541.62 1659.5,-551.62 1666.5,-551.62"/>
</g>
<!-- ln&#45;&gt;dn -->
<g id="edge34" class="edge">
<title>ln&#45;&gt;dn</title>
<path fill="none" stroke="black" d="M1564.64,-323.97C1559.69,-350.52 1551,-403.56 1551,-449 1551,-667 1551,-667 1551,-667 1551,-710.34 1574.15,-756.12 1590.95,-783.62"/>
<polygon fill="black" stroke="black" points="1587.9,-785.35 1596.2,-791.94 1593.82,-781.62 1587.9,-785.35"/>
</g>
<!-- ln&#45;&gt;fs -->
<g id="edge35" class="edge">
<title>ln&#45;&gt;fs</title>
<path fill="none" stroke="black" d="M1559.19,-288.76C1554.73,-280.55 1549.2,-270.37 1544.16,-261.09"/>
<polygon fill="black" stroke="black" points="1547.33,-259.6 1539.49,-252.48 1541.18,-262.94 1547.33,-259.6"/>
</g>
<!-- ds -->
<g id="node42" class="node">
<title>ds</title>
<ellipse fill="none" stroke="black" cx="761" cy="-18" rx="27" ry="18"/>
<text text-anchor="middle" x="761" y="-12.95" font-family="Times,serif" font-size="14.00">ds</text>
</g>
<!-- ds&#45;&gt;kb -->
<g id="edge41" class="edge">
<title>ds&#45;&gt;kb</title>
<path fill="none" stroke="black" d="M778.34,-32.22C806.24,-55.14 858,-105.17 858,-161 858,-595 858,-595 858,-595 858,-682.34 735.01,-718.21 671.3,-730.93"/>
<polygon fill="black" stroke="black" points="670.8,-727.47 661.62,-732.77 672.1,-734.35 670.8,-727.47"/>
</g>
<!-- kk&#45;&gt;sq -->
<g id="edge42" class="edge">
<title>kk&#45;&gt;sq</title>
<path fill="none" stroke="black" d="M915.33,-647.59C918.54,-623.61 924.35,-580.14 928.2,-551.42"/>
<polygon fill="black" stroke="black" points="931.65,-551.99 929.51,-541.61 924.71,-551.06 931.65,-551.99"/>
</g>
<!-- tv&#45;&gt;dn -->
<g id="edge54" class="edge">
<title>tv&#45;&gt;dn</title>
<path fill="none" stroke="black" d="M1675.05,-683.71C1667.34,-701.82 1654.24,-731.44 1641,-756 1636.05,-765.19 1630.15,-774.97 1624.72,-783.59"/>
<polygon fill="black" stroke="black" points="1621.91,-781.49 1619.46,-791.8 1627.8,-785.27 1621.91,-781.49"/>
</g>
<!-- tv&#45;&gt;pn -->
<g id="edge55" class="edge">
<title>tv&#45;&gt;pn</title>
<path fill="none" stroke="black" d="M1677.4,-648.05C1675.35,-640.49 1672.87,-631.37 1670.56,-622.85"/>
<polygon fill="black" stroke="black" points="1673.95,-621.98 1667.95,-613.25 1667.2,-623.82 1673.95,-621.98"/>
</g>
<!-- zl&#45;&gt;kb -->
<g id="edge77" class="edge">
<title>zl&#45;&gt;kb</title>
<path fill="none" stroke="black" d="M637.3,-93.38C572.08,-100.82 410,-129.69 410,-233 410,-595 410,-595 410,-595 410,-637.19 411.94,-655.45 443,-684 485.04,-722.63 552.8,-733.45 595.3,-736.28"/>
<polygon fill="black" stroke="black" points="594.89,-739.76 605.06,-736.8 595.26,-732.77 594.89,-739.76"/>
</g>
<!-- zl&#45;&gt;ds -->
<g id="edge78" class="edge">
<title>zl&#45;&gt;ds</title>
<path fill="none" stroke="black" d="M681.79,-76.16C696.42,-65.6 717.39,-50.47 734.07,-38.43"/>
<polygon fill="black" stroke="black" points="736.03,-41.33 742.09,-32.64 731.94,-35.66 736.03,-41.33"/>
</g>
<!-- pp -->
<g id="node48" class="node">
<title>pp</title>
<ellipse fill="none" stroke="black" cx="235" cy="-90" rx="27" ry="18"/>
<text text-anchor="middle" x="235" y="-84.95" font-family="Times,serif" font-size="14.00">pp</text>
</g>
<!-- jd&#45;&gt;pp -->
<g id="edge53" class="edge">
<title>jd&#45;&gt;pp</title>
<path fill="none" stroke="black" d="M235,-143.7C235,-136.41 235,-127.73 235,-119.54"/>
<polygon fill="black" stroke="black" points="238.5,-119.62 235,-109.62 231.5,-119.62 238.5,-119.62"/>
</g>
<!-- xr&#45;&gt;sq -->
<g id="edge107" class="edge">
<title>xr&#45;&gt;sq</title>
<path fill="none" stroke="black" d="M787.52,-583.56C816.24,-571.52 866.11,-550.62 899.09,-536.8"/>
<polygon fill="black" stroke="black" points="900.3,-540.08 908.17,-532.99 897.6,-533.63 900.3,-540.08"/>
</g>
<!-- pp&#45;&gt;bc -->
<g id="edge64" class="edge">
<title>pp&#45;&gt;bc</title>
<path fill="none" stroke="black" d="M208.5,-94.37C147.04,-103.8 0,-136.47 0,-233 0,-811 0,-811 0,-811 0,-877.47 78.26,-920.57 124.97,-940.37"/>
<polygon fill="black" stroke="black" points="123.56,-943.57 134.14,-944.11 126.2,-937.09 123.56,-943.57"/>
</g>
<!-- pp&#45;&gt;vk -->
<g id="edge63" class="edge">
<title>pp&#45;&gt;vk</title>
<path fill="none" stroke="black" d="M256.71,-101.01C295.34,-120.48 372,-167.4 372,-233 372,-523 372,-523 372,-523 372,-563.45 378.92,-580.95 353,-612 330.12,-639.4 290.81,-652.82 261.58,-659.27"/>
<polygon fill="black" stroke="black" points="261.14,-655.79 252.02,-661.19 262.51,-662.66 261.14,-655.79"/>
</g>
<!-- sb -->
<g id="node49" class="node">
<title>sb</title>
<ellipse fill="none" stroke="black" cx="112" cy="-306" rx="27" ry="18"/>
<text text-anchor="middle" x="112" y="-300.95" font-family="Times,serif" font-size="14.00">sb</text>
</g>
<!-- sb&#45;&gt;vk -->
<g id="edge57" class="edge">
<title>sb&#45;&gt;vk</title>
<path fill="none" stroke="black" d="M98.08,-321.84C76.65,-346.32 38,-397.57 38,-449 38,-523 38,-523 38,-523 38,-597.72 134,-638.37 188.07,-655.34"/>
<polygon fill="black" stroke="black" points="186.88,-658.64 197.47,-658.17 188.9,-651.93 186.88,-658.64"/>
</g>
<!-- gf -->
<g id="node50" class="node">
<title>gf</title>
<ellipse fill="none" stroke="black" cx="207" cy="-234" rx="27" ry="18"/>
<text text-anchor="middle" x="207" y="-228.95" font-family="Times,serif" font-size="14.00">gf</text>
</g>
<!-- sb&#45;&gt;gf -->
<g id="edge56" class="edge">
<title>sb&#45;&gt;gf</title>
<path fill="none" stroke="black" d="M129.42,-292.16C143.66,-281.67 164.03,-266.66 180.32,-254.66"/>
<polygon fill="black" stroke="black" points="182.17,-257.64 188.15,-248.89 178.02,-252.01 182.17,-257.64"/>
</g>
<!-- gf&#45;&gt;vk -->
<g id="edge97" class="edge">
<title>gf&#45;&gt;vk</title>
<path fill="none" stroke="black" d="M210.36,-251.97C215.31,-278.52 224,-331.56 224,-377 224,-523 224,-523 224,-523 224,-562.26 224,-607.62 224,-636.31"/>
<polygon fill="black" stroke="black" points="220.5,-636 224,-646 227.5,-636 220.5,-636"/>
</g>
<!-- gf&#45;&gt;jd -->
<g id="edge96" class="edge">
<title>gf&#45;&gt;jd</title>
<path fill="none" stroke="black" d="M213.64,-216.41C216.77,-208.57 220.6,-198.99 224.15,-190.13"/>
<polygon fill="black" stroke="black" points="227.39,-191.46 227.85,-180.88 220.89,-188.86 227.39,-191.46"/>
</g>
<!-- gt&#45;&gt;kb -->
<g id="edge104" class="edge">
<title>gt&#45;&gt;kb</title>
<path fill="none" stroke="black" d="M629.42,-863.87C626.89,-839.99 626.57,-796.38 628.46,-767.54"/>
<polygon fill="black" stroke="black" points="631.94,-767.95 629.28,-757.7 624.97,-767.37 631.94,-767.95"/>
</g>
<!-- nc -->
<g id="node57" class="node">
<title>nc</title>
<ellipse fill="none" stroke="black" cx="570" cy="-810" rx="27" ry="18"/>
<text text-anchor="middle" x="570" y="-804.95" font-family="Times,serif" font-size="14.00">nc</text>
</g>
<!-- gt&#45;&gt;nc -->
<g id="edge103" class="edge">
<title>gt&#45;&gt;nc</title>
<path fill="none" stroke="black" d="M620.43,-866.15C611.94,-856.87 600.83,-844.73 591.2,-834.19"/>
<polygon fill="black" stroke="black" points="593.91,-831.96 584.57,-826.94 588.74,-836.68 593.91,-831.96"/>
</g>
<!-- pf&#45;&gt;dn -->
<g id="edge83" class="edge">
<title>pf&#45;&gt;dn</title>
<path fill="none" stroke="black" d="M1649.65,-538.06C1641.6,-548.08 1631.97,-561.95 1627,-576 1602.2,-646.13 1603.17,-735.26 1605.72,-780.25"/>
<polygon fill="black" stroke="black" points="1602.23,-780.45 1606.37,-790.2 1609.22,-780 1602.23,-780.45"/>
</g>
<!-- pf&#45;&gt;jx -->
<g id="edge84" class="edge">
<title>pf&#45;&gt;jx</title>
<path fill="none" stroke="black" d="M1671.81,-504.76C1676.27,-496.55 1681.8,-486.37 1686.84,-477.09"/>
<polygon fill="black" stroke="black" points="1689.82,-478.94 1691.51,-468.48 1683.67,-475.6 1689.82,-478.94"/>
</g>
<!-- zc&#45;&gt;vm -->
<g id="edge66" class="edge">
<title>zc&#45;&gt;vm</title>
<path fill="none" stroke="black" d="M1090.69,-35.68C1079.91,-61.85 1061,-114.38 1061,-161 1061,-523 1061,-523 1061,-523 1061,-582.22 1123.39,-626.93 1162.7,-649.23"/>
<polygon fill="black" stroke="black" points="1160.85,-652.2 1171.3,-653.94 1164.21,-646.06 1160.85,-652.2"/>
</g>
<!-- rn&#45;&gt;dn -->
<g id="edge73" class="edge">
<title>rn&#45;&gt;dn</title>
<path fill="none" stroke="black" d="M1466.69,-35.68C1455.91,-61.85 1437,-114.38 1437,-161 1437,-667 1437,-667 1437,-667 1437,-713.04 1455.63,-725.37 1490,-756 1513.55,-776.99 1546.79,-790.9 1571.99,-799.19"/>
<polygon fill="black" stroke="black" points="1570.91,-802.51 1581.5,-802.15 1572.99,-795.83 1570.91,-802.51"/>
</g>
<!-- kq&#45;&gt;vk -->
<g id="edge86" class="edge">
<title>kq&#45;&gt;vk</title>
<path fill="none" stroke="black" d="M105.11,-395.86C101.3,-406.12 96.94,-419.59 95,-432 92.53,-447.81 92.24,-452.24 95,-468 106.73,-535.03 105.43,-558.13 147,-612 159.04,-627.6 176.98,-640.32 192.51,-649.39"/>
<polygon fill="black" stroke="black" points="190.52,-652.29 200.96,-654.08 193.92,-646.17 190.52,-652.29"/>
</g>
<!-- kq&#45;&gt;sb -->
<g id="edge85" class="edge">
<title>kq&#45;&gt;sb</title>
<path fill="none" stroke="black" d="M112,-359.7C112,-352.41 112,-343.73 112,-335.54"/>
<polygon fill="black" stroke="black" points="115.5,-335.62 112,-325.62 108.5,-335.62 115.5,-335.62"/>
</g>
<!-- md&#45;&gt;vk -->
<g id="edge108" class="edge">
<title>md&#45;&gt;vk</title>
<path fill="none" stroke="black" d="M183.56,-791.8C181.61,-773.52 180.33,-743.99 188,-720 191.3,-709.69 197.3,-699.55 203.46,-690.95"/>
<polygon fill="black" stroke="black" points="206.12,-693.23 209.44,-683.17 200.57,-688.97 206.12,-693.23"/>
</g>
<!-- md&#45;&gt;xf -->
<g id="edge109" class="edge">
<title>md&#45;&gt;xf</title>
<path fill="none" stroke="black" d="M194.81,-792.76C199.27,-784.55 204.8,-774.37 209.84,-765.09"/>
<polygon fill="black" stroke="black" points="212.82,-766.94 214.51,-756.48 206.67,-763.6 212.82,-766.94"/>
</g>
<!-- nc&#45;&gt;kb -->
<g id="edge90" class="edge">
<title>nc&#45;&gt;kb</title>
<path fill="none" stroke="black" d="M583.57,-794.15C592.06,-784.87 603.17,-772.73 612.8,-762.19"/>
<polygon fill="black" stroke="black" points="615.26,-764.68 619.43,-754.94 610.09,-759.96 615.26,-764.68"/>
</g>
<!-- nc&#45;&gt;gj -->
<g id="edge89" class="edge">
<title>nc&#45;&gt;gj</title>
<path fill="none" stroke="black" d="M562.18,-792.43C550.74,-768.17 529.29,-722.71 515.6,-693.7"/>
<polygon fill="black" stroke="black" points="518.85,-692.38 511.41,-684.83 512.51,-695.37 518.85,-692.38"/>
</g>
<!-- pv&#45;&gt;vm -->
<g id="edge106" class="edge">
<title>pv&#45;&gt;vm</title>
<path fill="none" stroke="black" d="M1261.05,-539.71C1253.34,-557.82 1240.24,-587.44 1227,-612 1222.05,-621.19 1216.15,-630.97 1210.72,-639.59"/>
<polygon fill="black" stroke="black" points="1207.91,-637.49 1205.46,-647.8 1213.8,-641.27 1207.91,-637.49"/>
</g>
<!-- pv&#45;&gt;dl -->
<g id="edge105" class="edge">
<title>pv&#45;&gt;dl</title>
<path fill="none" stroke="black" d="M1259.19,-504.76C1254.73,-496.55 1249.2,-486.37 1244.16,-477.09"/>
<polygon fill="black" stroke="black" points="1247.33,-475.6 1239.49,-468.48 1241.18,-478.94 1247.33,-475.6"/>
</g>
<!-- broadcaster -->
<g id="node59" class="node">
<title>broadcaster</title>
<ellipse fill="none" stroke="black" cx="883" cy="-954" rx="53.4" ry="18"/>
<text text-anchor="middle" x="883" y="-948.95" font-family="Times,serif" font-size="14.00">broadcaster</text>
</g>
<!-- broadcaster&#45;&gt;lf -->
<g id="edge102" class="edge">
<title>broadcaster&#45;&gt;lf</title>
<path fill="none" stroke="black" d="M830.43,-950.31C695.06,-941.97 345,-910.74 345,-811 345,-811 345,-811 345,-737 345,-696.59 333.95,-650.9 325.73,-622.52"/>
<polygon fill="black" stroke="black" points="329.19,-621.86 322.97,-613.29 322.48,-623.87 329.19,-621.86"/>
</g>
<!-- broadcaster&#45;&gt;gd -->
<g id="edge99" class="edge">
<title>broadcaster&#45;&gt;gd</title>
<path fill="none" stroke="black" d="M921.76,-941.2C965.38,-927.93 1035.65,-906.54 1077.77,-893.72"/>
<polygon fill="black" stroke="black" points="1078.61,-897.13 1087.16,-890.87 1076.57,-890.43 1078.61,-897.13"/>
</g>
<!-- broadcaster&#45;&gt;kg -->
<g id="edge100" class="edge">
<title>broadcaster&#45;&gt;kg</title>
<path fill="none" stroke="black" d="M933.98,-948.08C1071.7,-934.78 1448.96,-898.36 1570.05,-886.66"/>
<polygon fill="black" stroke="black" points="1570.15,-890.17 1579.77,-885.73 1569.48,-883.2 1570.15,-890.17"/>
</g>
<!-- broadcaster&#45;&gt;gt -->
<g id="edge101" class="edge">
<title>broadcaster&#45;&gt;gt</title>
<path fill="none" stroke="black" d="M842.99,-941.75C795.09,-928.29 715.58,-905.93 669.68,-893.03"/>
<polygon fill="black" stroke="black" points="670.81,-889.71 660.23,-890.37 668.91,-896.45 670.81,-889.71"/>
</g>
</g>
</svg>
