<?xml version="1.0" encoding="UTF-8" standalone="no"?>
<!DOCTYPE svg PUBLIC "-//W3C//DTD SVG 1.1//EN"
 "http://www.w3.org/Graphics/SVG/1.1/DTD/svg11.dtd">
<!-- Generated by graphviz version 9.0.0 (0)
 -->
<!-- Pages: 1 -->
<svg width="512pt" height="1106pt"
 viewBox="0.00 0.00 512.32 1106.00" xmlns="http://www.w3.org/2000/svg" xmlns:xlink="http://www.w3.org/1999/xlink">
<g id="graph0" class="graph" transform="scale(1 1) rotate(0) translate(4 1102)">
<polygon fill="white" stroke="none" points="-4,4 -4,-1102 508.32,-1102 508.32,4 -4,4"/>
<!-- n0_1 -->
<g id="node1" class="node">
<title>n0_1</title>
<ellipse fill="none" stroke="black" cx="187.16" cy="-1080" rx="29.34" ry="18"/>
<text text-anchor="middle" x="187.16" y="-1074.95" font-family="Times,serif" font-size="14.00">n0_1</text>
</g>
<!-- n15_15 -->
<g id="node2" class="node">
<title>n15_15</title>
<ellipse fill="none" stroke="black" cx="187.16" cy="-991.5" rx="38.56" ry="18"/>
<text text-anchor="middle" x="187.16" y="-986.45" font-family="Times,serif" font-size="14.00">n15_15</text>
</g>
<!-- n0_1&#45;&gt;n15_15 -->
<g id="edge1" class="edge">
<title>n0_1&#45;&gt;n15_15</title>
<path fill="none" stroke="black" d="M187.16,-1061.91C187.16,-1050.26 187.16,-1034.55 187.16,-1021.02"/>
<polygon fill="black" stroke="black" points="190.66,-1021.36 187.16,-1011.36 183.66,-1021.36 190.66,-1021.36"/>
<text text-anchor="middle" x="197.29" y="-1030.7" font-family="Times,serif" font-size="14.00">140</text>
</g>
<!-- n31_11 -->
<g id="node3" class="node">
<title>n31_11</title>
<ellipse fill="none" stroke="black" cx="142.16" cy="-903" rx="38.56" ry="18"/>
<text text-anchor="middle" x="142.16" y="-897.95" font-family="Times,serif" font-size="14.00">n31_11</text>
</g>
<!-- n15_15&#45;&gt;n31_11 -->
<g id="edge2" class="edge">
<title>n15_15&#45;&gt;n31_11</title>
<path fill="none" stroke="black" d="M178.49,-973.82C172.18,-961.69 163.5,-945.02 156.21,-931"/>
<polygon fill="black" stroke="black" points="159.38,-929.52 151.66,-922.26 153.17,-932.75 159.38,-929.52"/>
<text text-anchor="middle" x="174.91" y="-942.2" font-family="Times,serif" font-size="14.00">63</text>
</g>
<!-- n7_37 -->
<g id="node4" class="node">
<title>n7_37</title>
<ellipse fill="none" stroke="black" cx="233.16" cy="-903" rx="33.95" ry="18"/>
<text text-anchor="middle" x="233.16" y="-897.95" font-family="Times,serif" font-size="14.00">n7_37</text>
</g>
<!-- n15_15&#45;&gt;n7_37 -->
<g id="edge3" class="edge">
<title>n15_15&#45;&gt;n7_37</title>
<path fill="none" stroke="black" d="M196.03,-973.82C202.52,-961.62 211.47,-944.8 218.95,-930.73"/>
<polygon fill="black" stroke="black" points="222,-932.44 223.61,-921.96 215.82,-929.15 222,-932.44"/>
<text text-anchor="middle" x="224.29" y="-942.2" font-family="Times,serif" font-size="14.00">153</text>
</g>
<!-- n35_31 -->
<g id="node5" class="node">
<title>n35_31</title>
<ellipse fill="none" stroke="black" cx="202.16" cy="-814.5" rx="38.56" ry="18"/>
<text text-anchor="middle" x="202.16" y="-809.45" font-family="Times,serif" font-size="14.00">n35_31</text>
</g>
<!-- n31_11&#45;&gt;n35_31 -->
<g id="edge4" class="edge">
<title>n31_11&#45;&gt;n35_31</title>
<path fill="none" stroke="black" d="M153.45,-885.73C162.11,-873.24 174.23,-855.76 184.22,-841.37"/>
<polygon fill="black" stroke="black" points="187.04,-843.45 189.86,-833.23 181.29,-839.46 187.04,-843.45"/>
<text text-anchor="middle" x="183.91" y="-853.7" font-family="Times,serif" font-size="14.00">95</text>
</g>
<!-- n59_5 -->
<g id="node6" class="node">
<title>n59_5</title>
<ellipse fill="none" stroke="black" cx="111.16" cy="-814.5" rx="33.95" ry="18"/>
<text text-anchor="middle" x="111.16" y="-809.45" font-family="Times,serif" font-size="14.00">n59_5</text>
</g>
<!-- n31_11&#45;&gt;n59_5 -->
<g id="edge5" class="edge">
<title>n31_11&#45;&gt;n59_5</title>
<path fill="none" stroke="black" d="M136.04,-884.91C131.79,-873.06 126.04,-857.02 121.14,-843.34"/>
<polygon fill="black" stroke="black" points="124.45,-842.21 117.78,-833.98 117.86,-844.57 124.45,-842.21"/>
<text text-anchor="middle" x="140.29" y="-853.7" font-family="Times,serif" font-size="14.00">253</text>
</g>
<!-- n7_37&#45;&gt;n35_31 -->
<g id="edge6" class="edge">
<title>n7_37&#45;&gt;n35_31</title>
<path fill="none" stroke="black" d="M227.04,-884.91C222.79,-873.06 217.04,-857.02 212.14,-843.34"/>
<polygon fill="black" stroke="black" points="215.45,-842.21 208.78,-833.98 208.86,-844.57 215.45,-842.21"/>
<text text-anchor="middle" x="230.29" y="-853.7" font-family="Times,serif" font-size="14.00">197</text>
</g>
<!-- n9_61 -->
<g id="node7" class="node">
<title>n9_61</title>
<ellipse fill="none" stroke="black" cx="293.16" cy="-814.5" rx="33.95" ry="18"/>
<text text-anchor="middle" x="293.16" y="-809.45" font-family="Times,serif" font-size="14.00">n9_61</text>
</g>
<!-- n7_37&#45;&gt;n9_61 -->
<g id="edge7" class="edge">
<title>n7_37&#45;&gt;n9_61</title>
<path fill="none" stroke="black" d="M244.45,-885.73C253.16,-873.16 265.39,-855.54 275.41,-841.09"/>
<polygon fill="black" stroke="black" points="278.24,-843.15 281.06,-832.94 272.49,-839.16 278.24,-843.15"/>
<text text-anchor="middle" x="278.29" y="-853.7" font-family="Times,serif" font-size="14.00">249</text>
</g>
<!-- n61_37 -->
<g id="node8" class="node">
<title>n61_37</title>
<ellipse fill="none" stroke="black" cx="166.16" cy="-726" rx="38.56" ry="18"/>
<text text-anchor="middle" x="166.16" y="-720.95" font-family="Times,serif" font-size="14.00">n61_37</text>
</g>
<!-- n35_31&#45;&gt;n61_37 -->
<g id="edge8" class="edge">
<title>n35_31&#45;&gt;n61_37</title>
<path fill="none" stroke="black" d="M192.1,-796.73C188.93,-791.06 185.56,-784.61 182.91,-778.5 179.65,-770.96 176.66,-762.58 174.14,-754.79"/>
<polygon fill="black" stroke="black" points="177.55,-753.96 171.26,-745.44 170.86,-756.03 177.55,-753.96"/>
<text text-anchor="middle" x="192.29" y="-765.2" font-family="Times,serif" font-size="14.00">175</text>
</g>
<!-- n41_65 -->
<g id="node9" class="node">
<title>n41_65</title>
<ellipse fill="none" stroke="black" cx="261.16" cy="-726" rx="38.56" ry="18"/>
<text text-anchor="middle" x="261.16" y="-720.95" font-family="Times,serif" font-size="14.00">n41_65</text>
</g>
<!-- n35_31&#45;&gt;n41_65 -->
<g id="edge9" class="edge">
<title>n35_31&#45;&gt;n41_65</title>
<path fill="none" stroke="black" d="M213.54,-796.82C222.03,-784.38 233.78,-767.14 243.49,-752.91"/>
<polygon fill="black" stroke="black" points="246.23,-755.11 248.97,-744.88 240.44,-751.17 246.23,-755.11"/>
<text text-anchor="middle" x="246.29" y="-765.2" font-family="Times,serif" font-size="14.00">211</text>
</g>
<!-- n59_5&#45;&gt;n61_37 -->
<g id="edge11" class="edge">
<title>n59_5&#45;&gt;n61_37</title>
<path fill="none" stroke="black" d="M121.51,-797.23C129.4,-784.82 140.42,-767.49 149.54,-753.14"/>
<polygon fill="black" stroke="black" points="152.26,-755.38 154.68,-745.06 146.36,-751.62 152.26,-755.38"/>
<text text-anchor="middle" x="154.29" y="-765.2" font-family="Times,serif" font-size="14.00">261</text>
</g>
<!-- n85_15 -->
<g id="node10" class="node">
<title>n85_15</title>
<ellipse fill="none" stroke="black" cx="71.16" cy="-726" rx="38.56" ry="18"/>
<text text-anchor="middle" x="71.16" y="-720.95" font-family="Times,serif" font-size="14.00">n85_15</text>
</g>
<!-- n59_5&#45;&gt;n85_15 -->
<g id="edge10" class="edge">
<title>n59_5&#45;&gt;n85_15</title>
<path fill="none" stroke="black" d="M95.04,-798.41C89.79,-792.65 84.41,-785.73 80.91,-778.5 77.5,-771.43 75.28,-763.27 73.83,-755.56"/>
<polygon fill="black" stroke="black" points="77.33,-755.28 72.41,-745.9 70.4,-756.31 77.33,-755.28"/>
<text text-anchor="middle" x="91.29" y="-765.2" font-family="Times,serif" font-size="14.00">183</text>
</g>
<!-- n9_61&#45;&gt;n41_65 -->
<g id="edge12" class="edge">
<title>n9_61&#45;&gt;n41_65</title>
<path fill="none" stroke="black" d="M286.84,-796.41C282.46,-784.56 276.52,-768.52 271.46,-754.84"/>
<polygon fill="black" stroke="black" points="274.75,-753.64 268,-745.47 268.18,-756.07 274.75,-753.64"/>
<text text-anchor="middle" x="289.29" y="-765.2" font-family="Times,serif" font-size="14.00">143</text>
</g>
<!-- n19_81 -->
<g id="node11" class="node">
<title>n19_81</title>
<ellipse fill="none" stroke="black" cx="356.16" cy="-726" rx="38.56" ry="18"/>
<text text-anchor="middle" x="356.16" y="-720.95" font-family="Times,serif" font-size="14.00">n19_81</text>
</g>
<!-- n9_61&#45;&gt;n19_81 -->
<g id="edge13" class="edge">
<title>n9_61&#45;&gt;n19_81</title>
<path fill="none" stroke="black" d="M305.01,-797.23C314.19,-784.62 327.08,-766.93 337.63,-752.45"/>
<polygon fill="black" stroke="black" points="340.2,-754.86 343.26,-744.71 334.54,-750.74 340.2,-754.86"/>
<text text-anchor="middle" x="340.29" y="-765.2" font-family="Times,serif" font-size="14.00">213</text>
</g>
<!-- n85_43 -->
<g id="node12" class="node">
<title>n85_43</title>
<ellipse fill="none" stroke="black" cx="143.16" cy="-637.5" rx="38.56" ry="18"/>
<text text-anchor="middle" x="143.16" y="-632.45" font-family="Times,serif" font-size="14.00">n85_43</text>
</g>
<!-- n61_37&#45;&gt;n85_43 -->
<g id="edge14" class="edge">
<title>n61_37&#45;&gt;n85_43</title>
<path fill="none" stroke="black" d="M159.09,-708.11C156.89,-702.43 154.6,-696 152.91,-690 150.84,-682.64 149.08,-674.57 147.65,-667.04"/>
<polygon fill="black" stroke="black" points="151.12,-666.57 145.93,-657.33 144.22,-667.79 151.12,-666.57"/>
<text text-anchor="middle" x="163.29" y="-676.7" font-family="Times,serif" font-size="14.00">113</text>
</g>
<!-- n67_63 -->
<g id="node13" class="node">
<title>n67_63</title>
<ellipse fill="none" stroke="black" cx="238.16" cy="-637.5" rx="38.56" ry="18"/>
<text text-anchor="middle" x="238.16" y="-632.45" font-family="Times,serif" font-size="14.00">n67_63</text>
</g>
<!-- n61_37&#45;&gt;n67_63 -->
<g id="edge15" class="edge">
<title>n61_37&#45;&gt;n67_63</title>
<path fill="none" stroke="black" d="M179.71,-708.73C190.37,-695.92 205.4,-677.86 217.55,-663.26"/>
<polygon fill="black" stroke="black" points="220,-665.79 223.71,-655.86 214.62,-661.31 220,-665.79"/>
<text text-anchor="middle" x="218.29" y="-676.7" font-family="Times,serif" font-size="14.00">159</text>
</g>
<!-- n41_65&#45;&gt;n67_63 -->
<g id="edge17" class="edge">
<title>n41_65&#45;&gt;n67_63</title>
<path fill="none" stroke="black" d="M256.62,-707.91C253.49,-696.14 249.26,-680.23 245.64,-666.61"/>
<polygon fill="black" stroke="black" points="249.12,-666.08 243.16,-657.31 242.35,-667.88 249.12,-666.08"/>
<text text-anchor="middle" x="261.29" y="-676.7" font-family="Times,serif" font-size="14.00">171</text>
</g>
<!-- n41_77 -->
<g id="node14" class="node">
<title>n41_77</title>
<ellipse fill="none" stroke="black" cx="333.16" cy="-637.5" rx="38.56" ry="18"/>
<text text-anchor="middle" x="333.16" y="-632.45" font-family="Times,serif" font-size="14.00">n41_77</text>
</g>
<!-- n41_65&#45;&gt;n41_77 -->
<g id="edge16" class="edge">
<title>n41_65&#45;&gt;n41_77</title>
<path fill="none" stroke="black" d="M274.71,-708.73C285.37,-695.92 300.4,-677.86 312.55,-663.26"/>
<polygon fill="black" stroke="black" points="315,-665.79 318.71,-655.86 309.62,-661.31 315,-665.79"/>
<text text-anchor="middle" x="309.91" y="-676.7" font-family="Times,serif" font-size="14.00">51</text>
</g>
<!-- n85_15&#45;&gt;n85_43 -->
<g id="edge18" class="edge">
<title>n85_15&#45;&gt;n85_43</title>
<path fill="none" stroke="black" d="M84.71,-708.73C95.37,-695.92 110.4,-677.86 122.55,-663.26"/>
<polygon fill="black" stroke="black" points="125,-665.79 128.71,-655.86 119.62,-661.31 125,-665.79"/>
<text text-anchor="middle" x="124.29" y="-676.7" font-family="Times,serif" font-size="14.00">127</text>
</g>
<!-- n103_11 -->
<g id="node15" class="node">
<title>n103_11</title>
<ellipse fill="none" stroke="black" cx="43.16" cy="-637.5" rx="43.16" ry="18"/>
<text text-anchor="middle" x="43.16" y="-632.45" font-family="Times,serif" font-size="14.00">n103_11</text>
</g>
<!-- n85_15&#45;&gt;n103_11 -->
<g id="edge19" class="edge">
<title>n85_15&#45;&gt;n103_11</title>
<path fill="none" stroke="black" d="M61.85,-708.28C58.99,-702.61 56.03,-696.15 53.91,-690 51.41,-682.75 49.4,-674.71 47.81,-667.18"/>
<polygon fill="black" stroke="black" points="51.27,-666.62 45.96,-657.45 44.39,-667.92 51.27,-666.62"/>
<text text-anchor="middle" x="64.29" y="-676.7" font-family="Times,serif" font-size="14.00">145</text>
</g>
<!-- n19_81&#45;&gt;n41_77 -->
<g id="edge20" class="edge">
<title>n19_81&#45;&gt;n41_77</title>
<path fill="none" stroke="black" d="M351.62,-707.91C348.49,-696.14 344.26,-680.23 340.64,-666.61"/>
<polygon fill="black" stroke="black" points="344.12,-666.08 338.16,-657.31 337.35,-667.88 344.12,-666.08"/>
<text text-anchor="middle" x="356.29" y="-676.7" font-family="Times,serif" font-size="14.00">109</text>
</g>
<!-- n17_107 -->
<g id="node16" class="node">
<title>n17_107</title>
<ellipse fill="none" stroke="black" cx="433.16" cy="-637.5" rx="43.16" ry="18"/>
<text text-anchor="middle" x="433.16" y="-632.45" font-family="Times,serif" font-size="14.00">n17_107</text>
</g>
<!-- n19_81&#45;&gt;n17_107 -->
<g id="edge21" class="edge">
<title>n19_81&#45;&gt;n17_107</title>
<path fill="none" stroke="black" d="M370.29,-709.13C381.75,-696.25 398.13,-677.86 411.29,-663.07"/>
<polygon fill="black" stroke="black" points="413.56,-665.78 417.6,-655.98 408.34,-661.13 413.56,-665.78"/>
<text text-anchor="middle" x="411.29" y="-676.7" font-family="Times,serif" font-size="14.00">287</text>
</g>
<!-- n85_65 -->
<g id="node17" class="node">
<title>n85_65</title>
<ellipse fill="none" stroke="black" cx="206.16" cy="-549" rx="38.56" ry="18"/>
<text text-anchor="middle" x="206.16" y="-543.95" font-family="Times,serif" font-size="14.00">n85_65</text>
</g>
<!-- n85_43&#45;&gt;n85_65 -->
<g id="edge22" class="edge">
<title>n85_43&#45;&gt;n85_65</title>
<path fill="none" stroke="black" d="M155.01,-620.23C164.19,-607.62 177.08,-589.93 187.63,-575.45"/>
<polygon fill="black" stroke="black" points="190.2,-577.86 193.26,-567.71 184.54,-573.74 190.2,-577.86"/>
<text text-anchor="middle" x="190.29" y="-588.2" font-family="Times,serif" font-size="14.00">101</text>
</g>
<!-- n99_29 -->
<g id="node18" class="node">
<title>n99_29</title>
<ellipse fill="none" stroke="black" cx="111.16" cy="-549" rx="38.56" ry="18"/>
<text text-anchor="middle" x="111.16" y="-543.95" font-family="Times,serif" font-size="14.00">n99_29</text>
</g>
<!-- n85_43&#45;&gt;n99_29 -->
<g id="edge23" class="edge">
<title>n85_43&#45;&gt;n99_29</title>
<path fill="none" stroke="black" d="M132.21,-619.92C128.84,-614.26 125.38,-607.77 122.91,-601.5 120.02,-594.13 117.74,-585.88 115.99,-578.17"/>
<polygon fill="black" stroke="black" points="119.46,-577.67 114.03,-568.57 112.6,-579.06 119.46,-577.67"/>
<text text-anchor="middle" x="133.29" y="-588.2" font-family="Times,serif" font-size="14.00">123</text>
</g>
<!-- n67_63&#45;&gt;n85_65 -->
<g id="edge25" class="edge">
<title>n67_63&#45;&gt;n85_65</title>
<path fill="none" stroke="black" d="M231.84,-619.41C227.46,-607.56 221.52,-591.52 216.46,-577.84"/>
<polygon fill="black" stroke="black" points="219.75,-576.64 213,-568.47 213.18,-579.07 219.75,-576.64"/>
<text text-anchor="middle" x="230.91" y="-588.2" font-family="Times,serif" font-size="14.00">71</text>
</g>
<!-- n67_83 -->
<g id="node19" class="node">
<title>n67_83</title>
<ellipse fill="none" stroke="black" cx="301.16" cy="-549" rx="38.56" ry="18"/>
<text text-anchor="middle" x="301.16" y="-543.95" font-family="Times,serif" font-size="14.00">n67_83</text>
</g>
<!-- n67_63&#45;&gt;n67_83 -->
<g id="edge24" class="edge">
<title>n67_63&#45;&gt;n67_83</title>
<path fill="none" stroke="black" d="M250.01,-620.23C259.19,-607.62 272.08,-589.93 282.63,-575.45"/>
<polygon fill="black" stroke="black" points="285.2,-577.86 288.26,-567.71 279.54,-573.74 285.2,-577.86"/>
<text text-anchor="middle" x="281.91" y="-588.2" font-family="Times,serif" font-size="14.00">67</text>
</g>
<!-- n41_77&#45;&gt;n67_83 -->
<g id="edge27" class="edge">
<title>n41_77&#45;&gt;n67_83</title>
<path fill="none" stroke="black" d="M326.84,-619.41C322.46,-607.56 316.52,-591.52 311.46,-577.84"/>
<polygon fill="black" stroke="black" points="314.75,-576.64 308,-568.47 308.18,-579.07 314.75,-576.64"/>
<text text-anchor="middle" x="329.29" y="-588.2" font-family="Times,serif" font-size="14.00">159</text>
</g>
<!-- n33_101 -->
<g id="node20" class="node">
<title>n33_101</title>
<ellipse fill="none" stroke="black" cx="401.16" cy="-549" rx="43.16" ry="18"/>
<text text-anchor="middle" x="401.16" y="-543.95" font-family="Times,serif" font-size="14.00">n33_101</text>
</g>
<!-- n41_77&#45;&gt;n33_101 -->
<g id="edge26" class="edge">
<title>n41_77&#45;&gt;n33_101</title>
<path fill="none" stroke="black" d="M345.95,-620.23C355.86,-607.62 369.77,-589.93 381.15,-575.45"/>
<polygon fill="black" stroke="black" points="383.83,-577.71 387.26,-567.68 378.33,-573.38 383.83,-577.71"/>
<text text-anchor="middle" x="379.91" y="-588.2" font-family="Times,serif" font-size="14.00">91</text>
</g>
<!-- n103_11&#45;&gt;n99_29 -->
<g id="edge28" class="edge">
<title>n103_11&#45;&gt;n99_29</title>
<path fill="none" stroke="black" d="M55.95,-620.23C65.93,-607.54 79.95,-589.7 91.37,-575.18"/>
<polygon fill="black" stroke="black" points="94.07,-577.41 97.49,-567.39 88.56,-573.09 94.07,-577.41"/>
<text text-anchor="middle" x="94.29" y="-588.2" font-family="Times,serif" font-size="14.00">133</text>
</g>
<!-- n125_43 -->
<g id="node21" class="node">
<title>n125_43</title>
<ellipse fill="none" stroke="black" cx="53.16" cy="-460.5" rx="43.16" ry="18"/>
<text text-anchor="middle" x="53.16" y="-455.45" font-family="Times,serif" font-size="14.00">n125_43</text>
</g>
<!-- n103_11&#45;&gt;n125_43 -->
<g id="edge29" class="edge">
<title>n103_11&#45;&gt;n125_43</title>
<path fill="none" stroke="black" d="M42.33,-619.29C41.49,-598.39 40.63,-562.05 42.91,-531 43.91,-517.45 45.98,-502.53 48,-490"/>
<polygon fill="black" stroke="black" points="51.42,-490.78 49.63,-480.34 44.51,-489.61 51.42,-490.78"/>
<text text-anchor="middle" x="53.29" y="-543.95" font-family="Times,serif" font-size="14.00">529</text>
</g>
<!-- n17_107&#45;&gt;n33_101 -->
<g id="edge30" class="edge">
<title>n17_107&#45;&gt;n33_101</title>
<path fill="none" stroke="black" d="M426.84,-619.41C422.46,-607.56 416.52,-591.52 411.46,-577.84"/>
<polygon fill="black" stroke="black" points="414.75,-576.64 408,-568.47 408.18,-579.07 414.75,-576.64"/>
<text text-anchor="middle" x="425.91" y="-588.2" font-family="Times,serif" font-size="14.00">97</text>
</g>
<!-- n39_133 -->
<g id="node22" class="node">
<title>n39_133</title>
<ellipse fill="none" stroke="black" cx="461.16" cy="-460.5" rx="43.16" ry="18"/>
<text text-anchor="middle" x="461.16" y="-455.45" font-family="Times,serif" font-size="14.00">n39_133</text>
</g>
<!-- n17_107&#45;&gt;n39_133 -->
<g id="edge31" class="edge">
<title>n17_107&#45;&gt;n39_133</title>
<path fill="none" stroke="black" d="M438.91,-619.26C443.38,-605.31 449.41,-585.07 453.16,-567 458.08,-543.3 458.37,-537.13 460.16,-513 460.71,-505.6 461.01,-497.58 461.16,-490.13"/>
<polygon fill="black" stroke="black" points="464.66,-490.24 461.28,-480.2 457.66,-490.16 464.66,-490.24"/>
<text text-anchor="middle" x="468.29" y="-543.95" font-family="Times,serif" font-size="14.00">447</text>
</g>
<!-- n89_77 -->
<g id="node23" class="node">
<title>n89_77</title>
<ellipse fill="none" stroke="black" cx="257.16" cy="-460.5" rx="38.56" ry="18"/>
<text text-anchor="middle" x="257.16" y="-455.45" font-family="Times,serif" font-size="14.00">n89_77</text>
</g>
<!-- n85_65&#45;&gt;n89_77 -->
<g id="edge32" class="edge">
<title>n85_65&#45;&gt;n89_77</title>
<path fill="none" stroke="black" d="M216,-531.32C223.26,-519 233.3,-501.97 241.65,-487.82"/>
<polygon fill="black" stroke="black" points="244.53,-489.82 246.59,-479.43 238.5,-486.27 244.53,-489.82"/>
<text text-anchor="middle" x="242.91" y="-499.7" font-family="Times,serif" font-size="14.00">35</text>
</g>
<!-- n113_65 -->
<g id="node24" class="node">
<title>n113_65</title>
<ellipse fill="none" stroke="black" cx="157.16" cy="-460.5" rx="43.16" ry="18"/>
<text text-anchor="middle" x="157.16" y="-455.45" font-family="Times,serif" font-size="14.00">n113_65</text>
</g>
<!-- n85_65&#45;&gt;n113_65 -->
<g id="edge33" class="edge">
<title>n85_65&#45;&gt;n113_65</title>
<path fill="none" stroke="black" d="M188.53,-532.57C182.9,-526.89 177.05,-520.09 172.91,-513 168.73,-505.84 165.56,-497.46 163.2,-489.56"/>
<polygon fill="black" stroke="black" points="166.61,-488.78 160.68,-480 159.84,-490.57 166.61,-488.78"/>
<text text-anchor="middle" x="182.29" y="-499.7" font-family="Times,serif" font-size="14.00">191</text>
</g>
<!-- n99_29&#45;&gt;n125_43 -->
<g id="edge34" class="edge">
<title>n99_29&#45;&gt;n125_43</title>
<path fill="none" stroke="black" d="M99.98,-531.32C91.63,-518.88 80.08,-501.64 70.53,-487.41"/>
<polygon fill="black" stroke="black" points="73.63,-485.74 65.15,-479.38 67.82,-489.64 73.63,-485.74"/>
<text text-anchor="middle" x="98.29" y="-499.7" font-family="Times,serif" font-size="14.00">151</text>
</g>
<!-- n99_29&#45;&gt;n113_65 -->
<g id="edge35" class="edge">
<title>n99_29&#45;&gt;n113_65</title>
<path fill="none" stroke="black" d="M111.35,-530.88C112.1,-520.41 114.25,-507.05 119.91,-496.5 122.18,-492.28 125.14,-488.28 128.42,-484.6"/>
<polygon fill="black" stroke="black" points="130.73,-487.23 135.35,-477.7 125.79,-482.27 130.73,-487.23"/>
<text text-anchor="middle" x="130.29" y="-499.7" font-family="Times,serif" font-size="14.00">205</text>
</g>
<!-- n67_83&#45;&gt;n89_77 -->
<g id="edge36" class="edge">
<title>n67_83&#45;&gt;n89_77</title>
<path fill="none" stroke="black" d="M286.11,-532.21C281.28,-526.5 276.26,-519.78 272.66,-513 268.84,-505.8 265.82,-497.51 263.5,-489.73"/>
<polygon fill="black" stroke="black" points="266.95,-489.07 260.99,-480.32 260.19,-490.88 266.95,-489.07"/>
<text text-anchor="middle" x="278.91" y="-499.7" font-family="Times,serif" font-size="14.00">63</text>
</g>
<!-- n55_101 -->
<g id="node25" class="node">
<title>n55_101</title>
<ellipse fill="none" stroke="black" cx="357.16" cy="-460.5" rx="43.16" ry="18"/>
<text text-anchor="middle" x="357.16" y="-455.45" font-family="Times,serif" font-size="14.00">n55_101</text>
</g>
<!-- n67_83&#45;&gt;n55_101 -->
<g id="edge37" class="edge">
<title>n67_83&#45;&gt;n55_101</title>
<path fill="none" stroke="black" d="M311.96,-531.32C320.02,-518.88 331.18,-501.64 340.39,-487.41"/>
<polygon fill="black" stroke="black" points="343.08,-489.69 345.58,-479.4 337.2,-485.89 343.08,-489.69"/>
<text text-anchor="middle" x="344.29" y="-499.7" font-family="Times,serif" font-size="14.00">121</text>
</g>
<!-- n33_101&#45;&gt;n39_133 -->
<g id="edge39" class="edge">
<title>n33_101&#45;&gt;n39_133</title>
<path fill="none" stroke="black" d="M412.73,-531.32C421.36,-518.88 433.32,-501.64 443.19,-487.41"/>
<polygon fill="black" stroke="black" points="445.94,-489.58 448.77,-479.37 440.19,-485.59 445.94,-489.58"/>
<text text-anchor="middle" x="446.29" y="-499.7" font-family="Times,serif" font-size="14.00">217</text>
</g>
<!-- n33_101&#45;&gt;n55_101 -->
<g id="edge38" class="edge">
<title>n33_101&#45;&gt;n55_101</title>
<path fill="none" stroke="black" d="M392.47,-530.91C386.32,-518.83 377.96,-502.38 370.91,-488.53"/>
<polygon fill="black" stroke="black" points="374.18,-487.23 366.52,-479.9 367.94,-490.4 374.18,-487.23"/>
<text text-anchor="middle" x="392.29" y="-499.7" font-family="Times,serif" font-size="14.00">101</text>
</g>
<!-- n125_63 -->
<g id="node26" class="node">
<title>n125_63</title>
<ellipse fill="none" stroke="black" cx="75.16" cy="-372" rx="43.16" ry="18"/>
<text text-anchor="middle" x="75.16" y="-366.95" font-family="Times,serif" font-size="14.00">n125_63</text>
</g>
<!-- n125_43&#45;&gt;n125_63 -->
<g id="edge40" class="edge">
<title>n125_43&#45;&gt;n125_63</title>
<path fill="none" stroke="black" d="M57.51,-442.41C60.5,-430.64 64.55,-414.73 68.01,-401.11"/>
<polygon fill="black" stroke="black" points="71.3,-402.37 70.38,-391.82 64.52,-400.65 71.3,-402.37"/>
<text text-anchor="middle" x="76.29" y="-411.2" font-family="Times,serif" font-size="14.00">139</text>
</g>
<!-- n59_125 -->
<g id="node27" class="node">
<title>n59_125</title>
<ellipse fill="none" stroke="black" cx="379.16" cy="-372" rx="43.16" ry="18"/>
<text text-anchor="middle" x="379.16" y="-366.95" font-family="Times,serif" font-size="14.00">n59_125</text>
</g>
<!-- n39_133&#45;&gt;n59_125 -->
<g id="edge41" class="edge">
<title>n39_133&#45;&gt;n59_125</title>
<path fill="none" stroke="black" d="M445.74,-443.23C433.48,-430.3 416.15,-412.02 402.25,-397.35"/>
<polygon fill="black" stroke="black" points="404.98,-395.14 395.56,-390.3 399.9,-399.96 404.98,-395.14"/>
<text text-anchor="middle" x="437.29" y="-411.2" font-family="Times,serif" font-size="14.00">151</text>
</g>
<!-- n99_87 -->
<g id="node28" class="node">
<title>n99_87</title>
<ellipse fill="none" stroke="black" cx="175.16" cy="-372" rx="38.56" ry="18"/>
<text text-anchor="middle" x="175.16" y="-366.95" font-family="Times,serif" font-size="14.00">n99_87</text>
</g>
<!-- n89_77&#45;&gt;n99_87 -->
<g id="edge42" class="edge">
<title>n89_77&#45;&gt;n99_87</title>
<path fill="none" stroke="black" d="M242.12,-443.63C229.75,-430.59 212.03,-411.89 197.93,-397.01"/>
<polygon fill="black" stroke="black" points="200.57,-394.71 191.15,-389.86 195.49,-399.53 200.57,-394.71"/>
<text text-anchor="middle" x="229.91" y="-411.2" font-family="Times,serif" font-size="14.00">71</text>
</g>
<!-- n75_103 -->
<g id="node29" class="node">
<title>n75_103</title>
<ellipse fill="none" stroke="black" cx="275.16" cy="-372" rx="43.16" ry="18"/>
<text text-anchor="middle" x="275.16" y="-366.95" font-family="Times,serif" font-size="14.00">n75_103</text>
</g>
<!-- n89_77&#45;&gt;n75_103 -->
<g id="edge43" class="edge">
<title>n89_77&#45;&gt;n75_103</title>
<path fill="none" stroke="black" d="M260.72,-442.41C263.14,-430.76 266.41,-415.05 269.23,-401.52"/>
<polygon fill="black" stroke="black" points="272.63,-402.34 271.24,-391.83 265.78,-400.91 272.63,-402.34"/>
<text text-anchor="middle" x="277.29" y="-411.2" font-family="Times,serif" font-size="14.00">143</text>
</g>
<!-- n113_65&#45;&gt;n125_63 -->
<g id="edge44" class="edge">
<title>n113_65&#45;&gt;n125_63</title>
<path fill="none" stroke="black" d="M141.74,-443.23C129.48,-430.3 112.15,-412.02 98.25,-397.35"/>
<polygon fill="black" stroke="black" points="100.98,-395.14 91.56,-390.3 95.9,-399.96 100.98,-395.14"/>
<text text-anchor="middle" x="130.91" y="-411.2" font-family="Times,serif" font-size="14.00">29</text>
</g>
<!-- n113_65&#45;&gt;n99_87 -->
<g id="edge45" class="edge">
<title>n113_65&#45;&gt;n99_87</title>
<path fill="none" stroke="black" d="M160.72,-442.41C163.14,-430.76 166.41,-415.05 169.23,-401.52"/>
<polygon fill="black" stroke="black" points="172.63,-402.34 171.24,-391.83 165.78,-400.91 172.63,-402.34"/>
<text text-anchor="middle" x="177.29" y="-411.2" font-family="Times,serif" font-size="14.00">107</text>
</g>
<!-- n55_101&#45;&gt;n59_125 -->
<g id="edge47" class="edge">
<title>n55_101&#45;&gt;n59_125</title>
<path fill="none" stroke="black" d="M361.51,-442.41C364.5,-430.64 368.55,-414.73 372.01,-401.11"/>
<polygon fill="black" stroke="black" points="375.3,-402.37 374.38,-391.82 368.52,-400.65 375.3,-402.37"/>
<text text-anchor="middle" x="379.29" y="-411.2" font-family="Times,serif" font-size="14.00">211</text>
</g>
<!-- n55_101&#45;&gt;n75_103 -->
<g id="edge46" class="edge">
<title>n55_101&#45;&gt;n75_103</title>
<path fill="none" stroke="black" d="M341.74,-443.23C329.48,-430.3 312.15,-412.02 298.25,-397.35"/>
<polygon fill="black" stroke="black" points="300.98,-395.14 291.56,-390.3 295.9,-399.96 300.98,-395.14"/>
<text text-anchor="middle" x="329.91" y="-411.2" font-family="Times,serif" font-size="14.00">81</text>
</g>
<!-- n125_83 -->
<g id="node30" class="node">
<title>n125_83</title>
<ellipse fill="none" stroke="black" cx="113.16" cy="-283.5" rx="43.16" ry="18"/>
<text text-anchor="middle" x="113.16" y="-278.45" font-family="Times,serif" font-size="14.00">n125_83</text>
</g>
<!-- n125_63&#45;&gt;n125_83 -->
<g id="edge48" class="edge">
<title>n125_63&#45;&gt;n125_83</title>
<path fill="none" stroke="black" d="M78.68,-353.83C81.12,-343.59 84.84,-330.48 89.91,-319.5 91.29,-316.52 92.9,-313.51 94.62,-310.56"/>
<polygon fill="black" stroke="black" points="97.49,-312.57 99.9,-302.25 91.58,-308.82 97.49,-312.57"/>
<text text-anchor="middle" x="100.29" y="-322.7" font-family="Times,serif" font-size="14.00">203</text>
</g>
<!-- n81_129 -->
<g id="node31" class="node">
<title>n81_129</title>
<ellipse fill="none" stroke="black" cx="331.16" cy="-283.5" rx="43.16" ry="18"/>
<text text-anchor="middle" x="331.16" y="-278.45" font-family="Times,serif" font-size="14.00">n81_129</text>
</g>
<!-- n59_125&#45;&gt;n81_129 -->
<g id="edge49" class="edge">
<title>n59_125&#45;&gt;n81_129</title>
<path fill="none" stroke="black" d="M369.91,-354.32C363.11,-342.08 353.74,-325.19 345.92,-311.09"/>
<polygon fill="black" stroke="black" points="349.2,-309.79 341.29,-302.75 343.08,-313.19 349.2,-309.79"/>
<text text-anchor="middle" x="369.29" y="-322.7" font-family="Times,serif" font-size="14.00">193</text>
</g>
<!-- n99_87&#45;&gt;n125_83 -->
<g id="edge50" class="edge">
<title>n99_87&#45;&gt;n125_83</title>
<path fill="none" stroke="black" d="M163.5,-354.73C154.47,-342.12 141.78,-324.43 131.41,-309.95"/>
<polygon fill="black" stroke="black" points="134.53,-308.31 125.86,-302.22 128.85,-312.39 134.53,-308.31"/>
<text text-anchor="middle" x="160.29" y="-322.7" font-family="Times,serif" font-size="14.00">113</text>
</g>
<!-- n113_113 -->
<g id="node32" class="node">
<title>n113_113</title>
<ellipse fill="none" stroke="black" cx="222.16" cy="-283.5" rx="47.77" ry="18"/>
<text text-anchor="middle" x="222.16" y="-278.45" font-family="Times,serif" font-size="14.00">n113_113</text>
</g>
<!-- n99_87&#45;&gt;n113_113 -->
<g id="edge51" class="edge">
<title>n99_87&#45;&gt;n113_113</title>
<path fill="none" stroke="black" d="M183.17,-354.12C188.09,-343.98 194.63,-330.88 200.91,-319.5 202.41,-316.79 204.01,-314 205.64,-311.22"/>
<polygon fill="black" stroke="black" points="208.59,-313.1 210.72,-302.72 202.58,-309.5 208.59,-313.1"/>
<text text-anchor="middle" x="210.29" y="-322.7" font-family="Times,serif" font-size="14.00">175</text>
</g>
<!-- n75_103&#45;&gt;n81_129 -->
<g id="edge52" class="edge">
<title>n75_103&#45;&gt;n81_129</title>
<path fill="none" stroke="black" d="M285.96,-354.32C294.02,-341.88 305.18,-324.64 314.39,-310.41"/>
<polygon fill="black" stroke="black" points="317.08,-312.69 319.58,-302.4 311.2,-308.89 317.08,-312.69"/>
<text text-anchor="middle" x="318.29" y="-322.7" font-family="Times,serif" font-size="14.00">123</text>
</g>
<!-- n75_103&#45;&gt;n113_113 -->
<g id="edge53" class="edge">
<title>n75_103&#45;&gt;n113_113</title>
<path fill="none" stroke="black" d="M263.23,-354.49C259.2,-348.72 254.75,-342.15 250.91,-336 246.02,-328.15 240.99,-319.42 236.54,-311.41"/>
<polygon fill="black" stroke="black" points="239.68,-309.86 231.81,-302.76 233.54,-313.22 239.68,-309.86"/>
<text text-anchor="middle" x="260.29" y="-322.7" font-family="Times,serif" font-size="14.00">239</text>
</g>
<!-- n137_109 -->
<g id="node33" class="node">
<title>n137_109</title>
<ellipse fill="none" stroke="black" cx="141.16" cy="-195" rx="47.77" ry="18"/>
<text text-anchor="middle" x="141.16" y="-189.95" font-family="Times,serif" font-size="14.00">n137_109</text>
</g>
<!-- n125_83&#45;&gt;n137_109 -->
<g id="edge54" class="edge">
<title>n125_83&#45;&gt;n137_109</title>
<path fill="none" stroke="black" d="M118.69,-265.41C122.5,-253.64 127.65,-237.73 132.06,-224.11"/>
<polygon fill="black" stroke="black" points="135.33,-225.38 135.08,-214.79 128.67,-223.23 135.33,-225.38"/>
<text text-anchor="middle" x="140.29" y="-234.2" font-family="Times,serif" font-size="14.00">233</text>
</g>
<!-- n101_125 -->
<g id="node34" class="node">
<title>n101_125</title>
<ellipse fill="none" stroke="black" cx="255.16" cy="-195" rx="47.77" ry="18"/>
<text text-anchor="middle" x="255.16" y="-189.95" font-family="Times,serif" font-size="14.00">n101_125</text>
</g>
<!-- n81_129&#45;&gt;n101_125 -->
<g id="edge55" class="edge">
<title>n81_129&#45;&gt;n101_125</title>
<path fill="none" stroke="black" d="M316.87,-266.23C305.69,-253.5 289.95,-235.59 277.16,-221.04"/>
<polygon fill="black" stroke="black" points="279.88,-218.83 270.65,-213.63 274.62,-223.45 279.88,-218.83"/>
<text text-anchor="middle" x="309.29" y="-234.2" font-family="Times,serif" font-size="14.00">179</text>
</g>
<!-- n113_113&#45;&gt;n137_109 -->
<g id="edge57" class="edge">
<title>n113_113&#45;&gt;n137_109</title>
<path fill="none" stroke="black" d="M206.93,-266.23C194.9,-253.38 177.92,-235.25 164.23,-220.63"/>
<polygon fill="black" stroke="black" points="167.03,-218.5 157.64,-213.6 161.92,-223.29 167.03,-218.5"/>
<text text-anchor="middle" x="198.29" y="-234.2" font-family="Times,serif" font-size="14.00">175</text>
</g>
<!-- n113_113&#45;&gt;n101_125 -->
<g id="edge56" class="edge">
<title>n113_113&#45;&gt;n101_125</title>
<path fill="none" stroke="black" d="M228.68,-265.41C233.25,-253.44 239.44,-237.2 244.7,-223.43"/>
<polygon fill="black" stroke="black" points="247.82,-225.06 248.12,-214.47 241.28,-222.56 247.82,-225.06"/>
<text text-anchor="middle" x="247.91" y="-234.2" font-family="Times,serif" font-size="14.00">47</text>
</g>
<!-- n137_127 -->
<g id="node35" class="node">
<title>n137_127</title>
<ellipse fill="none" stroke="black" cx="197.16" cy="-106.5" rx="47.77" ry="18"/>
<text text-anchor="middle" x="197.16" y="-101.45" font-family="Times,serif" font-size="14.00">n137_127</text>
</g>
<!-- n137_109&#45;&gt;n137_127 -->
<g id="edge58" class="edge">
<title>n137_109&#45;&gt;n137_127</title>
<path fill="none" stroke="black" d="M151.96,-177.32C159.97,-164.96 171.03,-147.86 180.21,-133.68"/>
<polygon fill="black" stroke="black" points="182.89,-135.99 185.38,-125.69 177.01,-132.18 182.89,-135.99"/>
<text text-anchor="middle" x="180.91" y="-145.7" font-family="Times,serif" font-size="14.00">33</text>
</g>
<!-- n101_125&#45;&gt;n137_127 -->
<g id="edge59" class="edge">
<title>n101_125&#45;&gt;n137_127</title>
<path fill="none" stroke="black" d="M243.98,-177.32C235.69,-164.96 224.22,-147.86 214.72,-133.68"/>
<polygon fill="black" stroke="black" points="217.83,-132.04 209.35,-125.68 212.01,-135.93 217.83,-132.04"/>
<text text-anchor="middle" x="241.29" y="-145.7" font-family="Times,serif" font-size="14.00">285</text>
</g>
<!-- n140_139 -->
<g id="node36" class="node">
<title>n140_139</title>
<ellipse fill="none" stroke="black" cx="197.16" cy="-18" rx="47.77" ry="18"/>
<text text-anchor="middle" x="197.16" y="-12.95" font-family="Times,serif" font-size="14.00">n140_139</text>
</g>
<!-- n137_127&#45;&gt;n140_139 -->
<g id="edge60" class="edge">
<title>n137_127&#45;&gt;n140_139</title>
<path fill="none" stroke="black" d="M197.16,-88.41C197.16,-76.76 197.16,-61.05 197.16,-47.52"/>
<polygon fill="black" stroke="black" points="200.66,-47.86 197.16,-37.86 193.66,-47.86 200.66,-47.86"/>
<text text-anchor="middle" x="203.91" y="-57.2" font-family="Times,serif" font-size="14.00">50</text>
</g>
</g>
</svg>
